<svg xmlns="http://www.w3.org/2000/svg" xmlns:xlink="http://www.w3.org/1999/xlink" width="500" zoomAndPan="magnify" viewBox="0 0 375 374.999991" height="500" preserveAspectRatio="xMidYMid meet" version="1.2"><defs><clipPath id="357bcbead0"><path d="M 36.9375 37.5 L 337.6875 37.5 L 337.6875 338.25 L 36.9375 338.25 Z M 36.9375 37.5 "/></clipPath><clipPath id="82c1b2e19e"><path d="M 187.3125 37.5 C 104.265625 37.5 36.9375 104.824219 36.9375 187.875 C 36.9375 270.925781 104.265625 338.25 187.3125 338.25 C 270.363281 338.25 337.6875 270.925781 337.6875 187.875 C 337.6875 104.824219 270.363281 37.5 187.3125 37.5 Z M 187.3125 37.5 "/></clipPath><clipPath id="12b9c2f188"><path d="M 73.546875 74.105469 L 301.453125 74.105469 L 301.453125 302.011719 L 73.546875 302.011719 Z M 73.546875 74.105469 "/></clipPath><clipPath id="be7d444223"><path d="M 187.5 74.105469 C 124.5625 74.105469 73.546875 125.125 73.546875 188.058594 C 73.546875 250.996094 124.5625 302.011719 187.5 302.011719 C 250.433594 302.011719 301.453125 250.996094 301.453125 188.058594 C 301.453125 125.125 250.433594 74.105469 187.5 74.105469 Z M 187.5 74.105469 "/></clipPath><clipPath id="7a1492bca6"><path d="M 116.78125 99.113281 L 256 99.113281 L 256 235.613281 L 116.78125 235.613281 Z M 116.78125 99.113281 "/></clipPath><clipPath id="187a8a309f"><path d="M 104.050781 167.242188 L 271 167.242188 L 271 251 L 104.050781 251 Z M 104.050781 167.242188 "/></clipPath></defs><g id="ed6bda296b"><g clip-rule="nonzero" clip-path="url(#357bcbead0)"><g clip-rule="nonzero" clip-path="url(#82c1b2e19e)"><path style="fill:none;stroke-width:4;stroke-linecap:butt;stroke-linejoin:miter;stroke:#4b4242;stroke-opacity:1;stroke-miterlimit:4;" d="M 200.740212 0.0000032873 C 89.87729 0.0000032873 -0.00198276 89.874061 -0.00198276 200.742198 C -0.00198276 311.610335 89.87729 401.484393 200.740212 401.484393 C 311.608349 401.484393 401.482407 311.610335 401.482407 200.742198 C 401.482407 89.874061 311.608349 0.0000032873 200.740212 0.0000032873 Z M 200.740212 0.0000032873 " transform="matrix(0.749095,0.000000000000000003,-0.000000000000000003,0.749095,36.938985,37.499998)"/></g></g><g clip-rule="nonzero" clip-path="url(#12b9c2f188)"><g clip-rule="nonzero" clip-path="url(#be7d444223)"><path style="fill:none;stroke-width:4;stroke-linecap:butt;stroke-linejoin:miter;stroke:#4b4242;stroke-opacity:1;stroke-miterlimit:4;" d="M 151.939367 -0.00137384 C 68.022695 -0.00137384 0.00185724 68.024672 0.00185724 151.936136 C 0.00185724 235.852808 68.022695 303.873646 151.939367 303.873646 C 235.850831 303.873646 303.876877 235.852808 303.876877 151.936136 C 303.876877 68.024672 235.850831 -0.00137384 151.939367 -0.00137384 Z M 151.939367 -0.00137384 " transform="matrix(0.75,0.000000000000000003,-0.000000000000000003,0.75,73.545482,74.106499)"/></g></g><g clip-rule="nonzero" clip-path="url(#7a1492bca6)"><path style=" stroke:none;fill-rule:nonzero;fill:#000000;fill-opacity:1;" d="M 249.949219 231.105469 C 250.675781 230.40625 251.03125 229.796875 250.664062 228.96875 C 250.28125 228.109375 249.5625 227.894531 248.679688 228.082031 C 248.328125 228.152344 247.960938 228.152344 247.621094 228.25 C 246.699219 228.5 246.261719 228.136719 246.011719 227.230469 C 245.082031 223.957031 245.3125 220.703125 246.101562 217.457031 C 246.476562 215.890625 247.15625 214.621094 249.117188 214.851562 C 249.339844 214.878906 249.589844 214.789062 249.824219 214.753906 C 250.773438 214.601562 251.238281 214.011719 251.140625 213.089844 C 251.039062 212.152344 250.433594 211.714844 249.476562 211.785156 C 248.882812 211.828125 248.285156 211.863281 247.695312 211.902344 C 249.171875 210.933594 250.128906 209.699219 250.691406 208.160156 C 251.960938 204.671875 250.433594 199.816406 245.457031 199.824219 C 243.792969 199.824219 242.128906 199.574219 240.453125 199.539062 C 239.605469 199.523438 239.238281 199.15625 239.105469 198.375 C 238.449219 194.558594 238.828125 190.871094 240.4375 187.3125 C 240.9375 186.195312 241.664062 185.695312 242.863281 185.613281 C 243.890625 185.550781 244.910156 185.328125 245.921875 185.128906 C 247.230469 184.886719 247.703125 184.316406 247.585938 183.242188 C 247.480469 182.3125 246.628906 181.75 245.4375 181.867188 C 244.429688 181.964844 243.417969 182.105469 242.449219 182.222656 C 241.199219 179.066406 241.332031 173.804688 242.566406 170.03125 C 243.085938 168.449219 243.792969 167.3125 245.679688 167.472656 C 246.03125 167.5 246.386719 167.375 246.746094 167.332031 C 247.722656 167.207031 248.5625 166.929688 248.542969 165.703125 C 248.535156 164.683594 247.960938 164.15625 246.628906 164.039062 C 244.492188 163.84375 242.351562 163.691406 240.214844 163.519531 C 237.289062 163.289062 234.359375 163.0625 231.34375 162.824219 C 231.425781 161.300781 230.683594 160.648438 229.296875 160.53125 C 228.921875 160.507812 228.492188 160.167969 228.25 159.84375 C 227.292969 158.582031 226.917969 157.152344 227.230469 155.578125 C 227.433594 154.566406 227.882812 153.824219 229.089844 153.816406 C 230.09375 153.804688 230.773438 153.316406 230.800781 152.230469 C 230.835938 151.125 230.21875 150.59375 228.847656 150.496094 C 221.359375 149.960938 213.859375 149.425781 206.371094 148.886719 C 204.761719 148.769531 203.160156 148.628906 201.367188 148.476562 C 202.183594 147.445312 202.917969 146.617188 203.535156 145.722656 C 207.023438 140.660156 209.226562 135.191406 208.75 128.886719 C 208.277344 122.886719 204.160156 116.703125 197.449219 115.265625 C 196.105469 114.980469 194.757812 114.746094 193.21875 114.460938 C 193.71875 114.058594 194.121094 113.761719 194.488281 113.429688 C 198.488281 109.871094 199.507812 105.210938 199.335938 100.140625 C 199.300781 99.121094 198.730469 99.363281 198.136719 99.808594 C 195.679688 101.667969 193.082031 103.027344 189.808594 102.714844 C 188.285156 102.574219 186.988281 103.441406 185.90625 104.515625 C 184.007812 106.390625 182.933594 108.707031 182.433594 111.300781 C 182.273438 112.160156 182.113281 113.019531 181.90625 114.148438 C 181.511719 112.546875 181.296875 111.195312 180.832031 109.953125 C 180.304688 108.554688 179.660156 107.171875 178.835938 105.925781 C 178.15625 104.878906 176.546875 104.878906 175.660156 105.683594 C 174.863281 106.417969 174.808594 107.789062 175.5625 108.707031 C 175.867188 109.074219 176.214844 109.398438 176.519531 109.765625 C 177.773438 111.265625 178.757812 112.894531 178.945312 115.113281 C 177.988281 114.996094 177.164062 114.941406 176.367188 114.773438 C 175.007812 114.476562 173.664062 114.109375 172.3125 113.769531 C 168.4375 112.777344 164.761719 113.101562 161.316406 115.300781 C 156.617188 118.304688 154.210938 122.699219 153.601562 128.109375 C 152.851562 134.863281 155.230469 140.757812 158.835938 146.273438 C 159.0625 146.617188 159.292969 146.957031 159.5625 147.347656 C 159.292969 147.4375 159.1875 147.492188 159.070312 147.5 C 154.480469 147.914062 149.878906 148.289062 145.289062 148.742188 C 141.378906 149.136719 137.453125 149.488281 133.566406 150.121094 C 130.417969 150.640625 128.59375 152.824219 127.914062 155.871094 C 127.214844 159.011719 127.921875 161.792969 130.480469 163.933594 C 130.890625 164.28125 131.367188 164.558594 131.804688 164.863281 C 129.578125 168.867188 128.96875 171.625 129.488281 175.398438 C 130.015625 179.253906 132.511719 182.277344 136.789062 182.367188 C 137.363281 182.375 137.933594 182.472656 138.585938 182.535156 C 131.929688 186.847656 131.832031 192.8125 133.898438 199.433594 C 133.386719 199.523438 132.921875 199.621094 132.449219 199.683594 C 127.921875 200.300781 123.394531 200.917969 118.855469 201.507812 C 117.835938 201.640625 117.183594 202.105469 117.210938 203.160156 C 117.238281 204.164062 117.828125 204.761719 118.828125 204.914062 C 119.257812 204.976562 119.707031 204.96875 120.128906 205.078125 C 121.273438 205.363281 121.863281 206.613281 121.621094 208.074219 C 121.414062 209.308594 120.609375 209.441406 119.589844 209.289062 C 119.277344 209.246094 118.953125 209.234375 118.640625 209.253906 C 117.703125 209.308594 117.011719 209.746094 116.898438 210.71875 C 116.78125 211.714844 117.300781 212.402344 118.230469 212.714844 C 118.597656 212.839844 119.007812 212.839844 119.402344 212.875 C 121.199219 213.054688 123 213.226562 124.824219 213.402344 C 119.722656 218.742188 119.902344 224.683594 122.410156 231.257812 C 118.273438 231.257812 119.070312 232.050781 123.5 232.214844 C 123.492188 232.339844 123.492188 232.457031 123.484375 232.582031 C 117.882812 232.695312 121.425781 233.957031 128.164062 234.109375 C 159.007812 234.824219 189.863281 235.09375 220.707031 235.566406 C 223.347656 235.605469 225.921875 235.363281 228.519531 234.898438 C 231.28125 234.40625 234.09375 233.878906 236.882812 233.824219 C 247.335938 233.636719 251.078125 232.734375 241.402344 232.625 C 241.402344 232.464844 241.402344 232.292969 241.402344 232.132812 C 243.34375 232.132812 245.277344 232.160156 247.21875 232.132812 C 256.292969 232.027344 258.53125 231.105469 249.949219 231.105469 Z M 244.554688 218.761719 C 244.429688 219.101562 243.820312 219.394531 243.398438 219.457031 C 238.523438 220.128906 233.628906 220.753906 228.742188 221.390625 C 227.523438 221.550781 226.316406 221.730469 224.734375 221.953125 C 225.0625 220.71875 225.234375 219.699219 225.617188 218.777344 C 225.78125 218.402344 226.371094 218.027344 226.808594 217.964844 C 232.9375 217.0625 239.078125 216.210938 245.214844 215.351562 C 245.277344 215.34375 245.351562 215.414062 245.449219 215.460938 C 245.171875 216.5625 244.957031 217.695312 244.554688 218.761719 Z M 235.050781 227.394531 C 234.585938 227.394531 234.121094 227.339844 233.664062 227.402344 C 231.21875 227.722656 228.777344 228.0625 226.34375 228.429688 C 224.859375 228.644531 224.839844 228.652344 224.757812 227.117188 C 224.742188 226.765625 224.757812 226.410156 224.757812 225.925781 C 231.210938 225.128906 237.628906 224.34375 244.097656 223.546875 C 244.417969 225.289062 244.707031 226.882812 245.019531 228.574219 C 242.601562 228.976562 240.140625 229.386719 237.679688 229.796875 C 234.351562 230.363281 231.015625 230.925781 227.6875 231.488281 C 226.101562 231.757812 225.511719 231.328125 225.1875 229.503906 C 228.480469 228.941406 231.773438 228.386719 235.066406 227.820312 C 235.058594 227.679688 235.050781 227.535156 235.050781 227.394531 Z M 226.34375 222.589844 C 231.765625 221.828125 237.179688 221.058594 242.601562 220.300781 C 243.105469 220.226562 243.613281 220.210938 244.097656 220.175781 C 244.222656 220.390625 244.257812 220.414062 244.265625 220.453125 C 244.429688 222.6875 244.429688 222.734375 242.261719 223 C 236.796875 223.679688 231.320312 224.324219 225.84375 224.976562 C 225.527344 225.011719 225.214844 224.988281 224.894531 224.988281 C 224.339844 223.125 224.507812 222.847656 226.34375 222.589844 Z M 249.25 213.117188 C 249.261719 213.207031 249.277344 213.296875 249.285156 213.394531 C 246.84375 213.714844 244.402344 214.03125 241.957031 214.351562 C 241.957031 214.261719 241.957031 214.164062 241.957031 214.074219 C 244.382812 213.753906 246.816406 213.429688 249.25 213.117188 Z M 243.085938 202.480469 C 243.828125 202.355469 244.570312 202.285156 245.3125 202.160156 C 247.445312 201.800781 248.167969 202.078125 248.882812 203.546875 C 249.691406 205.191406 249.484375 207.929688 248.265625 208.761719 C 247.445312 209.324219 246.351562 209.511719 245.375 209.851562 C 246.898438 209.226562 247.730469 207.507812 247.371094 205.703125 C 247.03125 204.003906 245.699219 202.921875 244.007812 202.964844 C 243.34375 202.984375 242.675781 202.964844 241.949219 202.75 C 242.324219 202.652344 242.699219 202.542969 243.085938 202.480469 Z M 245.046875 208.691406 C 244.929688 208.617188 244.804688 208.554688 244.6875 208.484375 C 244.839844 207.6875 244.992188 206.890625 245.199219 205.792969 C 245.476562 206.246094 245.824219 206.5625 245.769531 206.785156 C 245.609375 207.4375 245.296875 208.054688 245.046875 208.691406 Z M 241.539062 204.691406 C 243.246094 204.371094 244.285156 205.628906 243.695312 207.304688 C 243.578125 207.625 243.128906 207.964844 242.78125 208.027344 C 231.632812 210.238281 220.484375 212.417969 209.332031 214.59375 C 209.027344 214.65625 208.722656 214.671875 208.359375 214.726562 C 208.160156 213.949219 207.972656 213.234375 207.777344 212.4375 C 214.398438 211.160156 220.929688 209.898438 227.460938 208.628906 C 227.445312 208.492188 227.417969 208.367188 227.398438 208.234375 C 225.441406 208.527344 223.460938 208.761719 221.511719 209.117188 C 217.207031 209.90625 212.921875 210.757812 208.625 211.550781 C 208.125 211.640625 207.589844 211.5625 207.070312 211.5625 C 207.058594 211.445312 207.058594 211.328125 207.050781 211.210938 C 207.222656 211.148438 207.390625 211.070312 207.570312 211.03125 C 218.878906 208.921875 230.210938 206.792969 241.539062 204.691406 Z M 242.960938 209.15625 C 231.371094 211.597656 219.777344 214.03125 208.1875 216.472656 C 208.117188 216.308594 208.042969 216.160156 207.980469 215.996094 C 208.375 215.773438 208.75 215.433594 209.171875 215.34375 C 216.027344 213.957031 222.890625 212.597656 229.753906 211.238281 C 233.84375 210.425781 237.929688 209.59375 242.03125 208.777344 C 242.316406 208.726562 242.613281 208.742188 242.898438 208.726562 C 242.914062 208.867188 242.941406 209.011719 242.960938 209.15625 Z M 207.105469 214.90625 C 207.078125 216.515625 206.917969 216.722656 205.304688 216.597656 C 196.035156 215.890625 186.757812 215.191406 177.496094 214.421875 C 164.941406 213.375 152.394531 212.257812 139.839844 211.167969 C 134.382812 210.691406 128.914062 210.191406 123.457031 209.691406 C 123.105469 209.65625 122.757812 209.59375 122.527344 209.558594 C 122.652344 208.171875 122.757812 206.910156 122.882812 205.503906 C 122.945312 205.503906 123.320312 205.480469 123.699219 205.503906 C 137.996094 206.667969 152.296875 207.859375 166.605469 208.976562 C 178.058594 209.871094 189.511719 210.675781 200.964844 211.507812 C 201.960938 211.578125 202.953125 211.578125 203.945312 211.550781 C 205.914062 211.488281 206.898438 212.332031 207.085938 214.316406 C 207.105469 214.511719 207.105469 214.710938 207.105469 214.90625 Z M 226.46875 199.074219 C 224.757812 199.246094 223.050781 199.394531 221.351562 199.59375 C 220.25 199.71875 219.140625 199.886719 218.046875 200.085938 C 217.0625 200.265625 217.144531 199.546875 217.082031 198.984375 C 217.027344 198.464844 216.597656 197.777344 217.628906 197.625 C 224.152344 196.660156 230.664062 195.675781 237.1875 194.710938 C 237.261719 194.699219 237.339844 194.753906 237.386719 194.773438 C 237.671875 196.652344 237.957031 198.519531 238.261719 200.550781 C 236.4375 200.84375 234.53125 201.140625 232.625 201.453125 C 228.859375 202.054688 225.101562 202.679688 221.324219 203.261719 C 219.210938 203.582031 218.238281 203.011719 217.59375 201.070312 C 220.570312 200.523438 223.542969 199.988281 226.503906 199.449219 C 226.503906 199.316406 226.488281 199.199219 226.46875 199.074219 Z M 218.601562 194.207031 C 224.570312 193.3125 230.53125 192.417969 236.5 191.535156 C 236.875 191.480469 237.261719 191.445312 237.816406 191.382812 C 237.734375 192.125 237.726562 192.75 237.574219 193.339844 C 237.503906 193.601562 237.144531 193.921875 236.882812 193.957031 C 230.324219 194.925781 223.765625 195.855469 217.207031 196.785156 C 217.136719 196.792969 217.0625 196.738281 216.992188 196.714844 C 216.625 194.71875 216.769531 194.484375 218.601562 194.207031 Z M 234.601562 204.351562 C 230.648438 205.03125 226.683594 205.710938 222.726562 206.390625 C 222.691406 206.222656 222.65625 206.058594 222.613281 205.890625 C 226.59375 205.28125 230.566406 204.671875 234.550781 204.066406 C 234.574219 204.15625 234.585938 204.253906 234.601562 204.351562 Z M 238.925781 187.804688 C 238.746094 190.140625 237.304688 190.675781 235.203125 190.917969 C 229.554688 191.570312 223.945312 192.464844 218.316406 193.25 C 218.011719 193.296875 217.699219 193.261719 217.394531 193.261719 C 217.457031 191.347656 218.425781 190.023438 220.160156 189.726562 C 226.039062 188.753906 231.925781 187.839844 237.816406 186.902344 C 238.28125 186.828125 238.738281 186.75 239.417969 186.632812 C 239.191406 187.160156 238.953125 187.472656 238.925781 187.804688 Z M 240.027344 182.507812 C 231.480469 183.707031 222.941406 184.898438 214.398438 186.085938 C 213 186.285156 212.242188 185.683594 211.714844 183.929688 C 218.855469 182.847656 225.90625 181.785156 232.957031 180.71875 C 232.9375 180.558594 232.910156 180.398438 232.894531 180.246094 C 225.761719 180.683594 218.738281 182.089844 211.453125 183 C 211.417969 182.25 211.285156 181.542969 211.390625 180.871094 C 211.425781 180.613281 211.964844 180.292969 212.304688 180.246094 C 217.617188 179.496094 222.933594 178.796875 228.25 178.054688 C 230.121094 177.796875 231.972656 177.464844 233.832031 177.160156 C 233.816406 177.027344 233.796875 176.902344 233.78125 176.765625 C 226.386719 177.644531 218.996094 178.511719 211.605469 179.386719 C 211.203125 177.492188 211.535156 176.992188 213.339844 176.738281 C 221.933594 175.585938 230.511719 174.441406 239.105469 173.296875 C 239.496094 173.242188 239.890625 173.234375 240.230469 173.214844 C 240.390625 176.265625 240.542969 179.246094 240.707031 182.347656 C 240.625 182.367188 240.328125 182.464844 240.027344 182.507812 Z M 234.101562 167.035156 C 234.136719 167.214844 234.183594 167.394531 234.21875 167.570312 C 233.289062 167.722656 232.367188 167.875 231.433594 168.027344 C 231.410156 167.921875 231.390625 167.824219 231.363281 167.714844 C 232.277344 167.492188 233.1875 167.257812 234.101562 167.035156 Z M 241.96875 167.964844 C 241.609375 169.128906 241.261719 170.058594 241.0625 171.023438 C 240.902344 171.8125 240.535156 172.144531 239.738281 172.242188 C 230.640625 173.394531 221.539062 174.566406 212.429688 175.738281 C 212.355469 175.746094 212.277344 175.710938 212.207031 175.695312 C 212.492188 173.644531 213.609375 172.3125 215.542969 172.007812 C 224.292969 170.648438 233.046875 169.324219 241.96875 167.964844 Z M 229.832031 161.929688 C 229.851562 162.082031 229.878906 162.242188 229.894531 162.394531 C 229.511719 162.5 229.144531 162.652344 228.75 162.707031 C 217.984375 164.261719 207.222656 165.820312 196.449219 167.339844 C 196.082031 167.394531 195.667969 167.144531 195.273438 167.027344 C 195.625 166.8125 195.964844 166.453125 196.339844 166.398438 C 206.40625 164.96875 216.472656 163.574219 226.539062 162.1875 C 227.625 162.042969 228.734375 162.007812 229.832031 161.929688 Z M 207.570312 188.019531 C 206.210938 187.910156 204.921875 187.832031 203.640625 187.695312 C 195.425781 186.855469 187.203125 186.007812 178.988281 185.148438 C 171.007812 184.316406 163.035156 183.457031 155.050781 182.617188 C 152.601562 182.355469 150.15625 182.070312 147.707031 181.890625 C 146.839844 181.828125 146.472656 181.480469 146.230469 180.683594 C 145.351562 177.769531 144.816406 174.824219 145.261719 171.777344 C 145.414062 170.71875 145.40625 170.71875 146.667969 170.972656 C 146.667969 172.660156 146.667969 174.386719 146.667969 176.105469 C 146.75 176.105469 146.839844 176.113281 146.917969 176.113281 C 147 174.808594 147.132812 173.503906 147.152344 172.207031 C 147.160156 171.285156 147.4375 170.972656 148.421875 171.070312 C 154.863281 171.722656 161.316406 172.3125 167.769531 172.910156 C 168.617188 172.992188 169.46875 173.011719 170.316406 173.0625 C 170.328125 172.9375 170.335938 172.824219 170.355469 172.699219 C 162.167969 171.714844 153.988281 170.730469 145.511719 169.710938 C 145.898438 169.433594 146.265625 169.046875 146.371094 169.109375 C 147.507812 169.753906 148.761719 169.421875 149.941406 169.550781 C 154.917969 170.066406 159.910156 170.488281 164.90625 170.933594 C 167.632812 171.175781 170.363281 171.382812 173.09375 171.597656 C 173.101562 171.527344 173.101562 171.445312 173.109375 171.375 C 172.136719 171.230469 171.140625 171.132812 170.183594 170.917969 C 169.359375 170.730469 168.5625 170.390625 167.757812 170.121094 C 167.535156 170.050781 167.3125 169.925781 167.089844 169.90625 C 164.449219 169.71875 161.816406 169.550781 159.175781 169.351562 C 155.027344 169.039062 150.863281 168.699219 146.710938 168.378906 C 146.597656 168.367188 146.488281 168.324219 146.371094 168.296875 C 146.550781 166.757812 146.710938 166.652344 148.207031 166.757812 C 155.535156 167.292969 162.863281 167.824219 170.203125 168.324219 C 177.136719 168.796875 184.070312 169.34375 191.007812 169.675781 C 196.125 169.914062 201.253906 169.863281 206.378906 169.953125 C 207.238281 169.96875 208.097656 170.050781 208.9375 170.101562 C 205.46875 175.882812 205 181.75 207.570312 188.019531 Z M 200.492188 204.03125 C 199.660156 204.386719 199.285156 203.957031 199.058594 203.375 C 197.871094 200.183594 197.179688 196.917969 197.699219 193.492188 C 197.871094 192.355469 198.039062 191.222656 198.28125 190.09375 C 198.351562 189.78125 198.65625 189.511719 198.792969 189.316406 C 199.097656 189.886719 199.300781 190.273438 199.640625 190.917969 C 199.3125 195.058594 198.765625 199.585938 200.492188 204.03125 Z M 196.742188 190.558594 C 196.625 193.351562 196.5 196.140625 196.382812 198.929688 C 196.277344 198.941406 196.179688 198.941406 196.070312 198.949219 C 195.425781 196.105469 195.785156 193.3125 196.742188 190.558594 Z M 193.457031 167.214844 C 193.683594 167.007812 193.886719 166.667969 194.148438 166.632812 C 194.390625 166.597656 194.675781 166.875 195.210938 167.152344 C 194.675781 167.484375 194.398438 167.777344 194.148438 167.761719 C 193.90625 167.742188 193.691406 167.402344 193.457031 167.214844 Z M 208.832031 193.84375 C 209.207031 193.886719 209.53125 194.371094 210.175781 194.898438 C 209.441406 195.425781 209.019531 195.890625 208.519531 196.007812 C 208.292969 196.058594 207.660156 195.441406 207.640625 195.101562 C 207.589844 194.386719 208.007812 193.742188 208.832031 193.84375 Z M 227.480469 160.792969 C 219.140625 161.929688 210.90625 163.054688 202.683594 164.183594 C 200.207031 164.523438 197.699219 164.773438 195.25 165.265625 C 192.8125 165.746094 191.957031 165.003906 191.238281 162.421875 C 191.023438 161.640625 191.222656 160.667969 191.507812 159.878906 C 191.679688 159.414062 192.347656 158.90625 192.851562 158.832031 C 202.730469 157.457031 212.617188 156.140625 222.515625 154.828125 C 223.757812 154.65625 225 154.550781 226.246094 154.40625 C 226.289062 154.558594 226.335938 154.710938 226.386719 154.863281 C 225.996094 155.023438 225.617188 155.28125 225.207031 155.34375 C 217.261719 156.480469 209.304688 157.589844 201.359375 158.71875 C 200.472656 158.84375 199.605469 159.058594 198.730469 159.226562 C 198.757812 159.398438 198.78125 159.566406 198.808594 159.738281 C 207.785156 158.554688 216.769531 157.375 225.886719 156.175781 C 225.914062 156.625 225.933594 157.035156 225.957031 157.519531 C 222.96875 157.992188 220.070312 158.449219 217.164062 158.914062 C 217.179688 159.074219 217.207031 159.234375 217.226562 159.398438 C 220.1875 159.074219 223.148438 158.753906 226.074219 158.429688 C 226.550781 159.199219 226.988281 159.941406 227.480469 160.792969 Z M 137.148438 161.730469 C 134.632812 161.445312 133.183594 160.121094 133.128906 158.289062 C 133.074219 156.4375 134.285156 155.15625 136.484375 154.84375 C 135.070312 157.230469 134.980469 159.503906 137.148438 161.730469 Z M 136.796875 159.191406 C 136.402344 157.867188 136.878906 156.140625 138.070312 155.355469 C 138.597656 155.015625 139.410156 154.960938 140.082031 155.015625 C 146.9375 155.542969 153.78125 156.132812 160.636719 156.679688 C 170.21875 157.445312 179.804688 158.1875 189.386719 158.941406 C 189.699219 158.96875 190.011719 158.996094 190.46875 159.03125 C 189.710938 161.417969 189.898438 163.617188 191.785156 165.765625 C 189.15625 165.605469 186.871094 165.496094 184.589844 165.328125 C 173.019531 164.476562 161.449219 163.617188 149.878906 162.761719 C 146.632812 162.519531 143.382812 162.277344 140.136719 162.019531 C 138.703125 161.910156 137.21875 160.621094 136.796875 159.191406 Z M 218.628906 151.570312 C 218.648438 151.652344 218.65625 151.730469 218.675781 151.804688 C 208.949219 152.976562 199.210938 154.136719 189.484375 155.308594 C 189.46875 155.191406 189.441406 155.078125 189.421875 154.960938 C 193.304688 154.835938 196.492188 153.109375 199.417969 150.746094 C 199.777344 150.460938 200.347656 150.265625 200.804688 150.292969 C 206.753906 150.695312 212.6875 151.140625 218.628906 151.570312 Z M 191.589844 103.96875 C 193.359375 103.996094 194.953125 103.519531 196.402344 102.519531 C 196.949219 102.144531 197.503906 101.785156 198.058594 101.429688 C 198.175781 101.472656 198.289062 101.515625 198.40625 101.5625 C 197.933594 103.457031 197.539062 105.371094 196.941406 107.222656 C 196.777344 107.726562 196.007812 108.089844 195.453125 108.40625 C 193.789062 109.351562 192.089844 110.246094 190.289062 111 C 190.898438 109.691406 192.285156 108.941406 192.1875 107.222656 C 189.761719 109.449219 187.230469 111.4375 183.839844 111.769531 C 183.875 107.6875 187.597656 103.90625 191.589844 103.96875 Z M 181.449219 120.9375 C 183.875 121.375 186.210938 120.988281 188.472656 120.148438 C 191.6875 118.949219 194.84375 117.582031 198.433594 118.734375 C 198.46875 118.574219 198.503906 118.414062 198.53125 118.253906 C 197.835938 117.949219 197.164062 117.5625 196.4375 117.347656 C 195.652344 117.117188 194.820312 117.054688 194.003906 116.910156 C 193.976562 116.730469 193.960938 116.554688 193.933594 116.375 C 194.46875 116.300781 195.023438 116.097656 195.542969 116.167969 C 202.039062 117.0625 206.09375 121 207.121094 127.472656 C 207.347656 128.878906 207.375 130.320312 207.375 131.742188 C 207.375 132.070312 206.933594 132.652344 206.65625 132.679688 C 204.671875 132.886719 203.730469 134.21875 202.917969 135.800781 C 202.308594 137 201.59375 138.144531 200.921875 139.308594 C 200.789062 139.539062 200.625 139.765625 200.484375 139.996094 C 200.382812 139.933594 200.277344 139.878906 200.179688 139.816406 C 200.320312 138.84375 200.472656 137.867188 200.617188 136.894531 C 200.511719 136.855469 200.410156 136.820312 200.304688 136.792969 C 200.070312 137.382812 199.8125 137.957031 199.613281 138.554688 C 199.097656 140.128906 198.21875 141.050781 196.421875 141.417969 C 192.957031 142.125 189.710938 143.511719 186.683594 145.382812 C 185.683594 146 184.582031 146.507812 183.472656 146.910156 C 181.496094 147.636719 180.359375 146.839844 180.601562 144.78125 C 181.019531 141.195312 181.671875 137.636719 182.113281 134.058594 C 182.40625 131.660156 182.632812 129.234375 182.640625 126.820312 C 182.648438 124.65625 182.183594 122.546875 180.324219 120.925781 C 180.726562 120.925781 181.101562 120.875 181.449219 120.9375 Z M 178.59375 153.878906 C 179.5625 153.878906 180.527344 153.878906 181.601562 153.878906 C 181.136719 153.601562 180.742188 153.367188 180.359375 153.136719 C 180.410156 152.976562 180.464844 152.824219 180.519531 152.660156 C 182.371094 153.253906 184.234375 153.832031 186.085938 154.421875 C 186.066406 154.511719 186.050781 154.613281 186.03125 154.699219 C 183.554688 154.488281 181.074219 154.273438 178.59375 154.058594 C 178.59375 154.003906 178.59375 153.941406 178.59375 153.878906 Z M 159.285156 129.34375 C 159.527344 128.261719 159.605469 127.109375 160.035156 126.105469 C 160.714844 124.523438 161.59375 123.027344 162.453125 121.527344 C 162.675781 121.132812 163.078125 120.757812 163.492188 120.585938 C 163.929688 120.398438 164.484375 120.460938 164.984375 120.40625 C 164.886719 120.898438 164.929688 121.472656 164.671875 121.855469 C 163.644531 123.394531 162.46875 124.84375 161.449219 126.390625 C 160.804688 127.367188 160.324219 128.449219 159.769531 129.488281 C 159.605469 129.433594 159.445312 129.386719 159.285156 129.34375 Z M 140.324219 150.847656 C 145.503906 150.371094 150.695312 150.023438 155.847656 149.378906 C 158.917969 148.996094 161.691406 148.894531 163.722656 151.757812 C 164.089844 152.277344 164.761719 152.582031 165.574219 153.207031 C 156.921875 152.492188 148.609375 151.792969 140.289062 151.105469 C 140.296875 151.023438 140.316406 150.933594 140.324219 150.847656 Z M 129.621094 160.09375 C 128.824219 157.609375 129.15625 155.210938 131.054688 153.226562 C 132.027344 152.207031 133.191406 151.6875 134.675781 151.8125 C 142.121094 152.445312 149.574219 153.019531 157.019531 153.617188 C 167.875 154.488281 178.730469 155.355469 189.582031 156.230469 C 190.675781 156.320312 191.765625 156.703125 192.839844 156.667969 C 194.085938 156.625 195.3125 156.210938 196.554688 156.050781 C 204.3125 155.039062 212.070312 154.046875 219.828125 153.082031 C 222.503906 152.75 225.199219 152.492188 227.882812 152.214844 C 228.304688 152.167969 228.734375 152.167969 229.164062 152.144531 C 229.179688 152.242188 229.199219 152.332031 229.214844 152.429688 C 228.679688 152.519531 228.140625 152.625 227.597656 152.699219 C 219.328125 153.789062 211.058594 154.851562 202.800781 155.960938 C 199.222656 156.445312 195.660156 157.054688 192.082031 157.5 C 190.910156 157.652344 189.699219 157.546875 188.511719 157.457031 C 172.269531 156.175781 156.019531 154.878906 139.777344 153.59375 C 138.632812 153.503906 137.46875 153.449219 136.324219 153.492188 C 133.792969 153.601562 131.984375 155.328125 131.804688 157.699219 C 131.644531 159.925781 133.351562 162.179688 135.714844 162.527344 C 138.070312 162.875 140.457031 163.019531 142.828125 163.199219 C 159.125 164.378906 175.410156 165.53125 191.703125 166.695312 C 192.449219 166.75 193.234375 166.695312 192.875 167.921875 C 192.0625 167.921875 191.238281 167.976562 190.425781 167.910156 C 172.386719 166.660156 154.34375 165.390625 136.304688 164.128906 C 135.714844 164.082031 135.125 163.996094 134.523438 163.957031 C 132.011719 163.796875 130.355469 162.394531 129.621094 160.09375 Z M 143.5625 176.257812 C 141.871094 176.480469 141.648438 176.328125 141.65625 174.925781 C 141.664062 173.664062 141.691406 172.394531 141.816406 171.140625 C 141.84375 170.882812 142.382812 170.433594 142.605469 170.480469 C 142.953125 170.542969 143.5 170.945312 143.507812 171.222656 C 143.609375 172.902344 143.5625 174.59375 143.5625 176.257812 Z M 135.304688 180.210938 C 134.167969 179.84375 132.976562 178.859375 132.359375 177.832031 C 130.257812 174.316406 130.730469 170.683594 132.46875 167.152344 C 132.59375 166.882812 133.085938 166.792969 133.566406 166.535156 C 133.578125 166.4375 133.613281 166.097656 133.648438 165.667969 C 135.839844 165.855469 138.007812 166.035156 140.289062 166.222656 C 140.351562 167.125 140.402344 167.976562 140.464844 168.824219 C 140.359375 168.867188 140.253906 168.914062 140.144531 168.96875 C 139.054688 167.660156 138.058594 168.949219 137.011719 168.867188 C 136.996094 168.96875 136.984375 169.074219 136.96875 169.171875 C 137.753906 169.335938 138.535156 169.511719 139.320312 169.648438 C 139.910156 169.746094 140.253906 169.925781 140.1875 170.632812 C 139.875 174.039062 139.679688 177.4375 141.003906 181.007812 C 138.882812 180.746094 137.003906 180.765625 135.304688 180.210938 Z M 134.660156 191.398438 C 135.007812 189.65625 135.332031 187.886719 136.539062 186.480469 C 137.085938 185.855469 137.753906 185.335938 138.515625 184.636719 C 138.675781 186.035156 138.460938 186.839844 137.703125 187.804688 C 136.914062 188.804688 136.816406 190.355469 136.46875 191.675781 C 136.289062 192.347656 136.671875 193.324219 135.5 193.367188 C 134.730469 193.402344 134.410156 192.617188 134.660156 191.398438 Z M 120.621094 203.734375 C 120.054688 203.691406 119.511719 203.539062 118.945312 203.429688 C 118.953125 203.261719 118.953125 203.082031 118.964844 202.910156 C 119.472656 202.886719 119.992188 202.796875 120.503906 202.832031 C 128.984375 203.421875 137.46875 204.011719 145.953125 204.621094 C 163.820312 205.90625 181.699219 207.140625 199.570312 208.539062 C 204.964844 208.957031 210.164062 208.046875 215.390625 207.097656 C 216.5 206.902344 217.617188 206.785156 218.730469 206.632812 C 218.753906 206.765625 218.78125 206.910156 218.816406 207.042969 C 218.199219 207.195312 217.59375 207.375 216.976562 207.507812 C 213.609375 208.25 210.226562 208.949219 206.871094 209.746094 C 203.902344 210.460938 200.9375 210.128906 197.976562 209.898438 C 179.757812 208.492188 161.53125 207.089844 143.3125 205.648438 C 135.742188 205.058594 128.179688 204.386719 120.621094 203.734375 Z M 192.375 233.324219 C 185.898438 233.234375 179.417969 233.136719 172.941406 233.046875 C 161.65625 232.882812 150.363281 232.722656 139.078125 232.554688 C 135.464844 232.5 131.847656 232.402344 128.234375 232.320312 C 127.992188 232.3125 127.722656 232.375 127.527344 232.285156 C 127.285156 232.179688 127.097656 231.9375 126.890625 231.757812 C 127.105469 231.640625 127.3125 231.507812 127.535156 231.417969 C 127.671875 231.363281 127.832031 231.390625 128.101562 231.382812 C 127.332031 229.816406 126.640625 228.414062 125.933594 226.972656 C 127.625 226.515625 127.671875 226.613281 128.089844 228.035156 C 128.429688 229.179688 129.011719 230.253906 129.488281 231.355469 C 129.65625 231.292969 129.835938 231.238281 130.007812 231.175781 C 129.53125 229.796875 129.058594 228.421875 128.601562 227.097656 C 146.460938 226.308594 164.222656 225.53125 181.996094 224.753906 C 181.988281 224.566406 181.988281 224.386719 181.976562 224.199219 C 172.304688 224.359375 162.632812 224.511719 152.957031 224.671875 C 152.957031 224.621094 152.949219 224.574219 152.949219 224.519531 C 158.8125 224.128906 164.664062 223.734375 170.523438 223.332031 C 170.53125 223.269531 170.550781 223.199219 170.558594 223.136719 C 170.058594 223.0625 169.558594 222.964844 169.054688 222.929688 C 168.5 222.882812 167.945312 222.875 167.390625 222.894531 C 159.445312 223.035156 151.492188 223.199219 143.546875 223.339844 C 139.054688 223.421875 134.5625 223.464844 130.070312 223.527344 C 129.59375 223.539062 129.128906 223.527344 128.492188 223.527344 C 128.914062 220.59375 130.230469 218.261719 132.0625 216.167969 C 131.984375 216.078125 131.902344 215.996094 131.8125 215.90625 C 131.339844 216.292969 130.785156 216.613281 130.398438 217.078125 C 129.058594 218.707031 128.136719 220.558594 127.902344 222.660156 C 127.769531 223.824219 127.035156 223.554688 126.363281 223.554688 C 125.460938 223.546875 125.558594 222.859375 125.710938 222.355469 C 126.382812 220.175781 127.125 218.019531 127.867188 215.753906 C 127.445312 216.210938 126.828125 216.613281 126.613281 217.167969 C 125.933594 218.929688 125.414062 220.753906 124.824219 222.554688 C 124.683594 222.992188 124.503906 223.421875 124.421875 223.652344 C 124.519531 224.53125 124.601562 225.273438 124.683594 226.015625 C 124.628906 225.996094 124.574219 225.988281 124.519531 225.96875 C 124.996094 227.015625 125.460938 228.0625 125.945312 229.117188 C 124.289062 229.65625 123.589844 229.421875 123.167969 227.894531 C 122.160156 224.234375 122.035156 220.59375 123.957031 217.140625 C 124.960938 215.34375 126.375 214.421875 128.628906 214.601562 C 137.578125 215.316406 146.542969 215.808594 155.492188 216.542969 C 164.519531 217.277344 173.53125 218.207031 182.550781 219.039062 C 185.800781 219.332031 189.046875 219.566406 192.296875 219.835938 C 192.679688 219.871094 193.074219 219.90625 193.539062 219.949219 C 192.699219 224.40625 192.941406 228.769531 193.671875 233.269531 C 193.199219 233.285156 192.789062 233.332031 192.375 233.324219 Z M 125.808594 224.878906 C 133.21875 224.878906 140.617188 224.878906 147.796875 224.878906 C 145.425781 225.441406 126.792969 225.730469 125.808594 224.878906 Z M 195.992188 229.773438 C 195.167969 229.78125 194.710938 229.53125 194.71875 228.644531 C 194.738281 227.304688 194.730469 225.960938 194.710938 224.621094 C 194.703125 224.011719 194.953125 223.753906 195.570312 223.832031 C 196.117188 223.902344 196.734375 223.824219 196.707031 224.671875 C 196.679688 225.425781 196.699219 226.175781 196.699219 226.925781 C 196.726562 226.925781 196.75 226.925781 196.769531 226.925781 C 196.769531 227.480469 196.726562 228.035156 196.777344 228.582031 C 196.839844 229.207031 196.921875 229.753906 195.992188 229.773438 Z M 199.785156 233.402344 C 198.34375 229.359375 198.101562 225.433594 198.898438 221.425781 C 199.035156 220.746094 199.375 220.460938 200.042969 220.542969 C 200.207031 220.558594 200.367188 220.53125 200.519531 220.566406 C 204.949219 221.410156 209.289062 220.746094 213.601562 219.726562 C 213.707031 219.699219 213.824219 219.734375 213.769531 219.734375 C 213.609375 222.035156 213.304688 224.316406 213.332031 226.585938 C 213.359375 228.824219 213.707031 231.050781 213.921875 233.414062 C 209.378906 233.402344 204.589844 233.402344 199.785156 233.402344 Z M 217.378906 233.394531 C 216.910156 233.304688 216.609375 232.328125 216.140625 231.625 C 216.070312 231.648438 215.722656 231.785156 215.320312 231.945312 C 213.769531 227.832031 213.984375 223.789062 215.535156 219.773438 C 215.632812 219.511719 215.910156 219.21875 216.160156 219.144531 C 217.753906 218.699219 219.363281 218.3125 221.144531 217.859375 C 219.605469 223.1875 219.613281 228.242188 221.214844 233.484375 C 219.902344 233.476562 218.601562 233.625 217.378906 233.394531 Z M 209.960938 218.421875 C 207.445312 219.054688 205.039062 219.109375 202.558594 218.894531 C 180.582031 216.964844 158.613281 215.003906 136.636719 213.046875 C 131.097656 212.554688 125.558594 212.015625 120.019531 211.5 C 119.707031 211.472656 119.367188 211.472656 119.082031 211.355469 C 118.867188 211.265625 118.722656 211.015625 118.542969 210.828125 C 118.742188 210.667969 118.917969 210.398438 119.132812 210.371094 C 119.5625 210.308594 120.003906 210.363281 120.441406 210.40625 C 137.34375 211.890625 154.246094 213.421875 171.160156 214.871094 C 182.128906 215.808594 193.109375 216.632812 204.082031 217.492188 C 209.152344 217.882812 214.003906 216.523438 218.898438 215.515625 C 223.523438 214.558594 228.167969 213.699219 232.785156 212.734375 C 236.820312 211.890625 240.839844 210.96875 244.859375 210.085938 C 245.007812 210.050781 245.144531 209.96875 245.289062 209.90625 C 245.179688 210.871094 244.347656 210.90625 243.695312 211.050781 C 240.167969 211.820312 236.617188 212.527344 233.089844 213.296875 C 225.378906 214.949219 217.628906 216.5 209.960938 218.421875 Z M 224.472656 233.914062 C 224.117188 233.964844 223.542969 233.671875 223.335938 233.359375 C 222.925781 232.742188 222.621094 232.027344 222.414062 231.308594 C 221.253906 227.230469 221.226562 223.160156 222.683594 219.136719 C 222.78125 218.878906 223.175781 218.726562 223.433594 218.519531 C 223.496094 218.589844 223.550781 218.652344 223.613281 218.726562 C 223.667969 218.414062 223.710938 218.109375 223.765625 217.796875 C 223.855469 217.796875 223.945312 217.804688 224.042969 217.804688 C 224.042969 218.1875 224.097656 218.574219 224.035156 218.949219 C 223.496094 222.097656 223.230469 225.253906 223.730469 228.4375 C 223.839844 229.144531 223.980469 229.851562 224.222656 230.523438 C 224.847656 232.320312 225.808594 232.9375 227.722656 232.894531 C 228 232.882812 228.277344 232.894531 228.554688 232.902344 C 228.625 232.902344 228.6875 232.945312 228.859375 233.019531 C 227.328125 233.332031 225.914062 233.691406 224.472656 233.914062 Z M 235.710938 231.8125 C 235.695312 231.6875 235.667969 231.5625 235.648438 231.433594 C 239.917969 230.730469 244.1875 230.011719 248.464844 229.308594 C 248.472656 229.378906 248.492188 229.449219 248.5 229.519531 C 244.230469 230.28125 239.972656 231.050781 235.710938 231.8125 Z M 235.710938 231.8125 "/></g><path style=" stroke:none;fill-rule:nonzero;fill:#000000;fill-opacity:1;" d="M 201.871094 181.855469 C 201.914062 179.34375 202.085938 176.820312 202.21875 174.308594 C 202.238281 173.921875 202.328125 173.539062 202.425781 172.847656 C 200.234375 175.425781 200.296875 183.796875 202.542969 185.488281 C 202.503906 184.789062 202.542969 184.324219 202.441406 183.886719 C 202.289062 183.199219 201.851562 182.527344 201.871094 181.855469 Z M 201.871094 181.855469 "/><path style=" stroke:none;fill-rule:nonzero;fill:#000000;fill-opacity:1;" d="M 197.835938 127.875 C 199.160156 127.914062 200.285156 126.757812 200.296875 125.355469 C 200.3125 123.878906 199.285156 122.75 197.933594 122.769531 C 196.699219 122.789062 195.660156 123.949219 195.660156 125.34375 C 195.667969 126.679688 196.671875 127.851562 197.835938 127.875 Z M 198.039062 123.96875 C 198.550781 124.058594 198.972656 124.683594 199.742188 125.320312 C 198.953125 125.960938 198.503906 126.625 197.960938 126.703125 C 197.179688 126.820312 196.851562 126.078125 196.839844 125.34375 C 196.832031 124.558594 197.152344 123.816406 198.039062 123.96875 Z M 198.039062 123.96875 "/><path style=" stroke:none;fill-rule:nonzero;fill:#000000;fill-opacity:1;" d="M 187.667969 212.402344 C 192.699219 212.742188 197.726562 213.082031 202.757812 213.421875 C 202.765625 213.242188 202.78125 213.0625 202.792969 212.882812 C 197.761719 212.542969 192.734375 212.203125 187.703125 211.863281 C 187.695312 212.035156 187.679688 212.214844 187.667969 212.402344 Z M 187.667969 212.402344 "/><path style=" stroke:none;fill-rule:nonzero;fill:#000000;fill-opacity:1;" d="M 147.347656 160.398438 C 157.378906 161.175781 167.410156 161.953125 177.441406 162.734375 C 177.460938 162.535156 177.46875 162.339844 177.484375 162.152344 C 167.445312 161.363281 157.414062 160.585938 147.375 159.800781 C 147.367188 160.003906 147.355469 160.203125 147.347656 160.398438 Z M 147.347656 160.398438 "/><path style=" stroke:none;fill-rule:nonzero;fill:#000000;fill-opacity:1;" d="M 166.792969 158.359375 C 164.914062 157.714844 140.539062 155.882812 139.078125 156.265625 C 139.070312 156.375 139.0625 156.472656 139.054688 156.578125 C 148.289062 157.304688 157.523438 158.027344 166.757812 158.753906 C 166.765625 158.617188 166.785156 158.492188 166.792969 158.359375 Z M 166.792969 158.359375 "/><path style=" stroke:none;fill-rule:nonzero;fill:#000000;fill-opacity:1;" d="M 210.925781 231.105469 C 210.925781 227.859375 210.925781 224.539062 210.925781 221.238281 C 209.769531 222.464844 209.796875 229.421875 210.925781 231.105469 Z M 210.925781 231.105469 "/><path style=" stroke:none;fill-rule:nonzero;fill:#000000;fill-opacity:1;" d="M 134.917969 169.496094 C 132.78125 171.890625 132.960938 178.476562 135.304688 179.21875 C 134.300781 175.945312 133.925781 172.734375 134.917969 169.496094 Z M 134.917969 169.496094 "/><path style=" stroke:none;fill-rule:nonzero;fill:#000000;fill-opacity:1;" d="M 218.890625 221.828125 C 218.78125 221.75 218.683594 221.667969 218.578125 221.585938 C 218.351562 221.902344 217.941406 222.222656 217.941406 222.535156 C 217.933594 225.183594 217.960938 227.839844 218.046875 230.488281 C 218.074219 231.320312 218.515625 231.417969 219.292969 230.898438 C 218.164062 229.753906 217.960938 225.175781 218.890625 221.828125 Z M 218.890625 221.828125 "/><g clip-rule="nonzero" clip-path="url(#187a8a309f)"><path style=" stroke:none;fill-rule:nonzero;fill:#000000;fill-opacity:1;" d="M 270.324219 211.242188 C 269.125 204.339844 265.578125 198.011719 264.378906 191.082031 C 263.734375 187.832031 263.742188 184.511719 264.054688 181.222656 C 264.304688 177.464844 264.714844 172.1875 262.128906 169.152344 C 261.039062 167.886719 259.3125 167.242188 257.660156 167.527344 C 252.554688 168.445312 250.945312 173.832031 250.488281 178.328125 C 249.683594 185.476562 252.207031 190.929688 255.015625 197.269531 C 256.765625 201.277344 258.949219 205.085938 260.488281 209.183594 C 261.414062 211.589844 262.15625 214.101562 262.609375 216.644531 C 262.925781 218.421875 263.210938 220.222656 263.132812 222.03125 C 262.984375 224.398438 262.1875 226.835938 260.796875 228.796875 C 259.003906 219.066406 251.601562 211.105469 242.449219 207.589844 C 241.824219 207.292969 241.199219 207.011719 240.578125 206.753906 C 242.308594 205.226562 242.703125 202.511719 242.894531 200.070312 C 243.089844 197.90625 243.015625 195.699219 243.550781 193.578125 C 243.757812 192.65625 244.324219 191.851562 244.410156 190.902344 C 244.542969 188.125 241.832031 187.675781 240.269531 189.65625 C 238.546875 191.582031 238.3125 194.066406 238.058594 196.519531 C 237.871094 197.632812 237.746094 200.425781 236.410156 200.703125 C 235.582031 200.621094 235.015625 199.882812 234.4375 199.351562 C 232.363281 197.132812 229.03125 196.011719 226.105469 197.074219 C 223.21875 198.261719 221.207031 201.144531 220.257812 204.046875 C 209.867188 205.1875 199.636719 209.460938 189.191406 213.023438 C 184.515625 214.664062 179.90625 216.433594 175.289062 218.175781 C 175.296875 218.113281 175.308594 218.050781 175.320312 217.992188 C 175.539062 216.640625 176.023438 215.222656 176.785156 214.050781 C 177.660156 212.566406 179.144531 211.554688 179.992188 210.054688 C 181.179688 207.699219 179.894531 205.859375 177.257812 206.554688 C 174.765625 207.109375 172.683594 208.964844 171.324219 211.070312 C 170.445312 212.488281 169.878906 214.046875 169.167969 215.554688 C 167.988281 218.128906 166.558594 220.253906 164.703125 222.03125 C 163.640625 222.398438 162.578125 222.753906 161.507812 223.105469 C 159.238281 223.875 156.976562 224.40625 154.625 224.894531 C 152.429688 223.386719 150.058594 222.125 147.539062 221.253906 C 141.691406 219.246094 135.15625 219.804688 129.398438 222.230469 C 128.574219 221.769531 127.746094 221.320312 126.910156 220.875 C 124.820312 219.75 122.757812 218.574219 120.714844 217.367188 C 120.164062 217.046875 119.613281 216.726562 119.054688 216.421875 C 118.808594 216.3125 118.550781 216.121094 118.269531 216.167969 C 117.578125 216.363281 118.136719 217.121094 118.3125 217.527344 C 118.769531 218.472656 119.242188 219.40625 119.714844 220.34375 C 120.707031 222.292969 121.65625 224.269531 122.722656 226.179688 C 120.785156 227.722656 119.070312 229.515625 117.671875 231.511719 C 116.535156 233.140625 115.191406 235.664062 114.253906 238.34375 C 112.296875 238.667969 110.339844 238.992188 108.382812 239.316406 C 107.128906 239.5625 105.820312 239.636719 104.617188 240.078125 C 104.332031 240.191406 104.105469 240.507812 104.21875 240.8125 C 104.359375 241.171875 104.746094 241.347656 105.046875 241.554688 C 106.394531 242.378906 107.804688 243.101562 109.210938 243.824219 C 110.5 244.484375 111.820312 245.109375 113.183594 245.609375 C 113.191406 245.675781 113.203125 245.738281 113.214844 245.804688 C 113.425781 251.242188 119.21875 250.683594 123.320312 250.21875 C 123.800781 250.171875 124.285156 250.125 124.765625 250.082031 C 163.941406 249.226562 203.128906 249.214844 242.3125 248.75 C 245.296875 248.894531 248.277344 248.804688 251.246094 248.269531 C 257.0625 247.3125 260.023438 242.238281 260.910156 236.78125 C 262.046875 236.152344 263.097656 235.378906 264.050781 234.5 C 266.492188 232.289062 268.371094 229.46875 269.425781 226.347656 C 271 221.503906 271.242188 216.242188 270.324219 211.242188 Z M 270.324219 211.242188 "/></g><path style=" stroke:none;fill-rule:nonzero;fill:#ffffff;fill-opacity:1;" d="M 233.785156 239.550781 C 233.269531 239.621094 233.347656 238.789062 233.222656 238.464844 C 233.007812 237.457031 232.839844 236.417969 232.722656 235.398438 C 232.300781 232.074219 232.1875 228.632812 233.34375 225.4375 C 233.597656 224.710938 233.9375 224.003906 234.359375 223.359375 C 235.445312 221.757812 237.367188 220.632812 239.328125 220.699219 C 240.140625 220.726562 240.984375 220.925781 241.714844 221.261719 C 242.050781 221.40625 242.355469 221.566406 242.699219 221.675781 C 243.722656 222.027344 244.621094 221.183594 244.96875 220.285156 C 245.449219 219.175781 245.417969 217.945312 245.59375 216.769531 C 245.710938 216.003906 245.882812 215.226562 246.332031 214.582031 C 247.273438 213.242188 249.167969 212.648438 250.59375 213.5625 C 251.765625 214.238281 252.5625 216.082031 251.496094 217.164062 C 251.363281 217.296875 251.164062 217.332031 251.035156 217.46875 C 250.691406 217.984375 250.554688 218.582031 250.445312 219.167969 C 250.050781 221.765625 251.070312 224.421875 250.375 226.996094 C 250.179688 227.734375 249.816406 228.472656 249.207031 228.957031 C 248.464844 229.550781 247.421875 229.644531 246.527344 229.386719 C 246.433594 229.359375 246.351562 229.3125 246.292969 229.226562 C 246.105469 228.957031 246.375 228.570312 246.691406 228.652344 C 247.519531 228.902344 248.519531 228.78125 249.066406 228.050781 C 250.835938 225.523438 249.003906 221.582031 249.761719 218.625 C 249.964844 217.933594 250.132812 217.058594 250.828125 216.699219 C 251.527344 216.394531 251.246094 215.277344 250.863281 214.808594 C 249.8125 213.351562 247.769531 213.691406 246.867188 215.121094 C 246.214844 216.257812 246.308594 217.625 246.109375 218.882812 C 245.902344 220.871094 244.542969 223.214844 242.230469 222.316406 C 241.292969 221.890625 240.3125 221.464844 239.269531 221.46875 C 237.722656 221.449219 236.234375 222.289062 235.257812 223.457031 C 232.863281 226.890625 232.992188 231.332031 233.433594 235.308594 C 233.550781 236.324219 233.710938 237.335938 233.914062 238.339844 C 233.9375 238.71875 234.289062 239.40625 233.785156 239.550781 Z M 233.785156 239.550781 "/><path style=" stroke:none;fill-rule:nonzero;fill:#ffffff;fill-opacity:1;" d="M 181.039062 235.679688 C 180.753906 235.464844 180.929688 235.164062 181.097656 234.941406 C 181.503906 234.308594 181.894531 233.667969 182.273438 233.019531 C 183.335938 231.105469 184.332031 229.085938 185.757812 227.4375 C 186.746094 226.230469 187.976562 225.273438 189.238281 224.371094 C 190.023438 223.777344 190.847656 223.195312 191.410156 222.375 C 191.890625 221.601562 192.167969 220.339844 191.246094 219.773438 C 189.953125 219.171875 188.4375 219.675781 187.171875 220.105469 C 184.886719 220.929688 182.808594 222.167969 181.003906 223.773438 C 179.917969 224.695312 179.070312 225.828125 178.230469 226.960938 C 176.75 228.929688 175.261719 230.90625 173.625 232.734375 C 172.835938 233.59375 172 234.410156 171.136719 235.195312 C 170.65625 235.625 170.179688 236.058594 169.671875 236.453125 C 169.484375 236.59375 169.273438 236.761719 169.027344 236.753906 C 168.59375 236.734375 168.546875 236.097656 169.015625 236.085938 C 172.046875 233.734375 174.507812 230.789062 176.761719 227.714844 C 177.703125 226.472656 178.566406 225.15625 179.636719 224.019531 C 180.464844 223.1875 181.355469 222.433594 182.316406 221.757812 C 184.34375 220.351562 187.261719 218.878906 189.746094 218.734375 C 192.199219 218.550781 193.335938 220.410156 192.21875 222.558594 C 191.144531 224.359375 189.101562 225.238281 187.605469 226.636719 C 186.585938 227.566406 185.722656 228.652344 184.976562 229.804688 C 184.15625 231.082031 183.5 232.449219 182.730469 233.753906 C 182.359375 234.382812 181.96875 234.996094 181.566406 235.601562 C 181.453125 235.773438 181.195312 235.796875 181.039062 235.679688 Z M 181.039062 235.679688 "/><path style=" stroke:none;fill-rule:nonzero;fill:#ffffff;fill-opacity:1;" d="M 131.074219 243.722656 C 131.039062 243.96875 130.980469 244.203125 130.902344 244.433594 C 130.828125 244.4375 130.753906 244.441406 130.675781 244.449219 C 130.601562 244.453125 130.527344 244.460938 130.453125 244.46875 C 130.378906 244.476562 130.300781 244.484375 130.226562 244.492188 C 130.167969 244.5 130.105469 244.507812 130.046875 244.515625 C 130.03125 244.515625 130.019531 244.519531 130.003906 244.519531 C 130.050781 244.414062 130.09375 244.304688 130.128906 244.199219 C 130.171875 244.0625 130.210938 243.929688 130.242188 243.789062 C 130.289062 243.785156 130.335938 243.777344 130.382812 243.773438 C 130.40625 243.773438 130.429688 243.769531 130.453125 243.765625 C 130.472656 243.765625 130.492188 243.761719 130.515625 243.761719 C 130.5625 243.757812 130.609375 243.753906 130.65625 243.75 C 130.710938 243.742188 130.765625 243.738281 130.820312 243.738281 C 130.851562 243.734375 130.886719 243.730469 130.917969 243.730469 C 130.972656 243.726562 131.023438 243.726562 131.074219 243.722656 Z M 131.074219 243.722656 "/><path style=" stroke:none;fill-rule:nonzero;fill:#ffffff;fill-opacity:1;" d="M 133.574219 243.828125 C 133.871094 243.875 133.964844 244.296875 133.707031 244.460938 C 133.539062 244.578125 133.3125 244.484375 133.132812 244.472656 C 132.785156 244.4375 132.441406 244.414062 132.097656 244.40625 C 132.050781 244.40625 132.003906 244.40625 131.957031 244.40625 C 131.742188 244.402344 131.53125 244.402344 131.320312 244.410156 C 131.226562 244.414062 131.132812 244.417969 131.039062 244.421875 C 130.992188 244.425781 130.949219 244.429688 130.902344 244.433594 C 130.828125 244.4375 130.75 244.441406 130.675781 244.449219 C 130.601562 244.453125 130.527344 244.460938 130.453125 244.46875 C 130.375 244.476562 130.300781 244.484375 130.226562 244.492188 C 130.167969 244.5 130.105469 244.507812 130.046875 244.515625 C 130.03125 244.515625 130.015625 244.519531 130.003906 244.519531 C 129.960938 244.527344 129.917969 244.53125 129.875 244.539062 C 129.835938 244.542969 129.796875 244.546875 129.757812 244.554688 C 129.660156 244.570312 129.5625 244.585938 129.46875 244.601562 C 129.417969 244.609375 129.371094 244.617188 129.324219 244.628906 C 129.09375 244.667969 128.863281 244.714844 128.632812 244.769531 C 128.578125 244.78125 128.519531 244.796875 128.460938 244.808594 C 128.394531 244.828125 128.324219 244.84375 128.257812 244.863281 C 128.035156 244.917969 127.8125 244.980469 127.59375 245.050781 C 127.566406 245.058594 127.535156 245.070312 127.503906 245.078125 C 127.441406 245.097656 127.378906 245.117188 127.316406 245.140625 C 127.25 245.160156 127.183594 245.183594 127.113281 245.207031 C 127.039062 245.234375 126.96875 245.257812 126.894531 245.285156 C 126.816406 245.3125 126.742188 245.339844 126.671875 245.367188 C 126.605469 245.390625 126.542969 245.417969 126.476562 245.441406 C 126.394531 245.472656 126.3125 245.507812 126.234375 245.539062 C 126.160156 245.570312 126.089844 245.597656 126.015625 245.628906 C 125.875 245.691406 125.734375 245.75 125.597656 245.816406 C 125.523438 245.851562 125.449219 245.886719 125.375 245.921875 C 125.304688 245.953125 125.234375 245.988281 125.164062 246.023438 C 125.148438 246.03125 125.132812 246.039062 125.117188 246.046875 C 125.0625 246.074219 125.007812 246.101562 124.953125 246.128906 C 124.886719 246.164062 124.824219 246.195312 124.757812 246.230469 C 124.691406 246.265625 124.625 246.304688 124.554688 246.339844 C 124.496094 246.371094 124.441406 246.402344 124.382812 246.433594 C 124.3125 246.476562 124.242188 246.515625 124.171875 246.554688 C 124.136719 246.574219 124.101562 246.597656 124.066406 246.617188 C 123.554688 246.925781 123.078125 247.269531 122.628906 247.617188 C 122.476562 247.714844 122.371094 247.902344 122.175781 247.914062 C 121.867188 247.9375 121.730469 247.539062 121.949219 247.339844 C 122.019531 247.277344 122.089844 247.21875 122.160156 247.15625 C 122.183594 247.136719 122.210938 247.117188 122.234375 247.097656 C 122.328125 247.015625 122.425781 246.941406 122.523438 246.863281 C 122.558594 246.839844 122.589844 246.8125 122.625 246.789062 C 122.65625 246.761719 122.691406 246.738281 122.722656 246.714844 C 122.800781 246.65625 122.878906 246.601562 122.960938 246.546875 C 123 246.515625 123.042969 246.488281 123.085938 246.457031 C 123.285156 246.324219 123.484375 246.191406 123.6875 246.066406 C 123.800781 245.996094 123.917969 245.925781 124.035156 245.855469 C 124.140625 245.796875 124.25 245.738281 124.355469 245.675781 C 124.375 245.667969 124.398438 245.65625 124.417969 245.644531 C 124.472656 245.617188 124.527344 245.585938 124.585938 245.554688 C 124.59375 245.554688 124.597656 245.550781 124.601562 245.546875 C 124.679688 245.507812 124.753906 245.46875 124.832031 245.429688 C 125.0625 245.3125 125.296875 245.203125 125.53125 245.097656 C 125.550781 245.089844 125.570312 245.078125 125.589844 245.070312 C 125.660156 245.039062 125.730469 245.011719 125.804688 244.980469 C 125.878906 244.945312 125.953125 244.914062 126.027344 244.882812 C 126.042969 244.878906 126.058594 244.871094 126.078125 244.863281 C 126.148438 244.835938 126.226562 244.804688 126.300781 244.773438 C 126.375 244.746094 126.457031 244.714844 126.535156 244.683594 C 126.542969 244.683594 126.550781 244.679688 126.558594 244.675781 C 126.632812 244.648438 126.707031 244.621094 126.78125 244.597656 C 126.789062 244.59375 126.800781 244.589844 126.8125 244.585938 C 126.886719 244.558594 126.960938 244.535156 127.035156 244.507812 C 127.050781 244.503906 127.066406 244.496094 127.082031 244.492188 C 127.160156 244.464844 127.234375 244.441406 127.308594 244.417969 C 127.394531 244.390625 127.480469 244.367188 127.566406 244.339844 C 127.652344 244.3125 127.738281 244.289062 127.824219 244.265625 C 127.910156 244.242188 127.996094 244.214844 128.082031 244.195312 C 128.167969 244.171875 128.253906 244.148438 128.339844 244.128906 C 128.414062 244.109375 128.488281 244.09375 128.5625 244.074219 C 128.625 244.0625 128.6875 244.046875 128.75 244.035156 C 128.773438 244.027344 128.800781 244.023438 128.824219 244.019531 C 128.882812 244.007812 128.945312 243.992188 129.003906 243.980469 C 129.089844 243.964844 129.171875 243.949219 129.257812 243.933594 C 129.300781 243.925781 129.34375 243.917969 129.390625 243.910156 C 129.417969 243.90625 129.441406 243.902344 129.472656 243.898438 C 129.539062 243.886719 129.609375 243.875 129.675781 243.863281 C 129.75 243.855469 129.824219 243.84375 129.898438 243.832031 C 129.972656 243.824219 130.046875 243.8125 130.121094 243.804688 C 130.160156 243.800781 130.199219 243.792969 130.238281 243.789062 C 130.285156 243.785156 130.332031 243.78125 130.378906 243.777344 C 130.402344 243.773438 130.425781 243.769531 130.449219 243.769531 C 130.46875 243.765625 130.488281 243.765625 130.511719 243.761719 C 130.558594 243.757812 130.605469 243.753906 130.65625 243.75 C 130.707031 243.746094 130.761719 243.742188 130.816406 243.738281 C 130.851562 243.734375 130.882812 243.734375 130.917969 243.730469 C 130.96875 243.726562 131.019531 243.726562 131.070312 243.722656 C 131.152344 243.71875 131.234375 243.714844 131.316406 243.710938 C 131.355469 243.710938 131.394531 243.707031 131.433594 243.707031 C 131.488281 243.707031 131.542969 243.703125 131.597656 243.703125 C 131.652344 243.703125 131.703125 243.703125 131.757812 243.703125 C 131.871094 243.703125 131.980469 243.703125 132.09375 243.707031 C 132.148438 243.707031 132.203125 243.710938 132.257812 243.710938 C 132.308594 243.714844 132.363281 243.714844 132.417969 243.71875 C 132.472656 243.722656 132.527344 243.722656 132.585938 243.726562 C 132.640625 243.730469 132.691406 243.734375 132.746094 243.738281 C 132.800781 243.742188 132.859375 243.746094 132.914062 243.75 C 132.964844 243.753906 133.015625 243.761719 133.066406 243.765625 C 133.238281 243.785156 133.40625 243.804688 133.574219 243.828125 Z M 133.574219 243.828125 "/><path style=" stroke:none;fill-rule:nonzero;fill:#ffffff;fill-opacity:1;" d="M 136.773438 238.371094 C 136.257812 238.480469 135.734375 238.546875 135.214844 238.601562 C 134.699219 238.703125 134.261719 238.457031 134.523438 237.898438 C 134.757812 237.4375 135.472656 235.757812 136.105469 235.996094 C 136.644531 235.921875 137.195312 236.898438 137.507812 237.269531 C 138.046875 237.980469 137.429688 238.273438 136.773438 238.371094 Z M 136.773438 238.371094 "/><path style=" stroke:none;fill-rule:nonzero;fill:#ffffff;fill-opacity:1;" d="M 135.339844 237.863281 C 135.367188 237.859375 135.394531 237.855469 135.421875 237.851562 C 135.394531 237.84375 135.363281 237.835938 135.335938 237.824219 C 135.328125 237.839844 135.324219 237.851562 135.316406 237.863281 C 135.324219 237.863281 135.332031 237.863281 135.339844 237.863281 Z M 135.339844 237.863281 "/><path style=" stroke:none;fill-rule:nonzero;fill:#ffffff;fill-opacity:1;" d="M 137.957031 244.824219 C 138.003906 244.957031 137.796875 245.03125 137.75 244.894531 C 137.707031 244.792969 137.667969 244.691406 137.625 244.589844 C 137.554688 244.417969 137.488281 244.246094 137.417969 244.078125 C 137.351562 243.917969 137.285156 243.757812 137.21875 243.601562 C 137.214844 243.589844 137.210938 243.582031 137.207031 243.570312 C 137.160156 243.453125 137.113281 243.335938 137.066406 243.21875 C 137.011719 243.085938 136.960938 242.957031 136.910156 242.824219 C 136.863281 242.648438 136.730469 242.46875 136.769531 242.289062 C 136.804688 242.199219 136.945312 242.210938 136.96875 242.304688 C 137.027344 242.464844 137.085938 242.625 137.148438 242.785156 C 137.179688 242.871094 137.214844 242.957031 137.246094 243.042969 C 137.316406 243.21875 137.390625 243.398438 137.464844 243.574219 C 137.570312 243.832031 137.675781 244.089844 137.777344 244.351562 C 137.804688 244.417969 137.832031 244.484375 137.855469 244.554688 C 137.894531 244.660156 137.925781 244.742188 137.957031 244.824219 Z M 137.957031 244.824219 "/><path style=" stroke:none;fill-rule:nonzero;fill:#ffffff;fill-opacity:1;" d="M 139.5 244.117188 C 139.445312 244.046875 139.390625 243.976562 139.34375 243.914062 C 138.917969 243.378906 138.511719 242.824219 138.121094 242.257812 C 138.074219 242.164062 138.183594 242.066406 138.273438 242.113281 C 138.328125 242.140625 138.359375 242.195312 138.394531 242.242188 C 138.8125 242.835938 139.25 243.410156 139.679688 243.996094 C 139.757812 244.109375 139.582031 244.234375 139.5 244.117188 Z M 139.5 244.117188 "/><path style=" stroke:none;fill-rule:nonzero;fill:#ffffff;fill-opacity:1;" d="M 141.078125 243.488281 C 140.359375 242.8125 139.664062 242.085938 138.957031 241.429688 C 138.941406 241.253906 139.148438 241.28125 139.234375 241.375 C 139.808594 241.863281 140.320312 242.429688 140.863281 242.945312 C 140.988281 243.070312 141.109375 243.1875 141.234375 243.308594 C 141.347656 243.410156 141.195312 243.589844 141.078125 243.488281 Z M 141.078125 243.488281 "/><path style=" stroke:none;fill-rule:nonzero;fill:#ffffff;fill-opacity:1;" d="M 140.722656 235.101562 C 140.691406 235.042969 140.726562 234.972656 140.78125 234.945312 C 141.527344 234.523438 142.242188 234.050781 142.988281 233.625 C 143.117188 233.554688 143.226562 233.753906 143.097656 233.828125 C 142.816406 234 142.535156 234.175781 142.253906 234.351562 C 141.890625 234.574219 141.53125 234.796875 141.15625 235 C 141.03125 235.039062 140.828125 235.246094 140.722656 235.101562 Z M 140.722656 235.101562 "/><path style=" stroke:none;fill-rule:nonzero;fill:#ffffff;fill-opacity:1;" d="M 140.417969 233.929688 C 140.140625 233.792969 140.957031 233.1875 141.066406 233.03125 C 141.347656 232.753906 141.628906 232.476562 141.917969 232.207031 C 141.964844 232.164062 142.039062 232.164062 142.082031 232.210938 C 142.125 232.257812 142.121094 232.328125 142.078125 232.371094 C 141.832031 232.621094 141.585938 232.871094 141.335938 233.117188 C 141.078125 233.375 140.800781 233.617188 140.550781 233.890625 C 140.527344 233.933594 140.464844 233.949219 140.417969 233.929688 Z M 140.417969 233.929688 "/><path style=" stroke:none;fill-rule:nonzero;fill:#ffffff;fill-opacity:1;" d="M 140.003906 233.222656 C 139.792969 233.117188 140.246094 232.628906 140.3125 232.476562 C 140.480469 232.214844 140.65625 231.953125 140.835938 231.707031 C 141.03125 231.429688 141.214844 231.171875 141.410156 230.902344 C 141.503906 230.785156 141.6875 230.933594 141.59375 231.050781 C 141.542969 231.117188 141.5 231.179688 141.457031 231.238281 C 141.105469 231.742188 140.757812 232.246094 140.417969 232.757812 C 140.328125 232.898438 140.230469 233.035156 140.140625 233.179688 C 140.117188 233.226562 140.054688 233.242188 140.003906 233.222656 Z M 140.003906 233.222656 "/><path style=" stroke:none;fill-rule:nonzero;fill:#ffffff;fill-opacity:1;" d="M 124.046875 243.832031 C 123.605469 243.4375 124.375 242.925781 124.570312 243.484375 C 124.667969 243.785156 124.285156 244.035156 124.046875 243.832031 Z M 124.046875 243.832031 "/><path style=" stroke:none;fill-rule:nonzero;fill:#ffffff;fill-opacity:1;" d="M 128.941406 242.097656 C 128.910156 241.960938 128.996094 241.816406 129.132812 241.785156 C 129.273438 241.75 129.414062 241.835938 129.449219 241.972656 C 129.484375 242.113281 129.394531 242.253906 129.257812 242.289062 C 129.121094 242.320312 128.976562 242.234375 128.941406 242.097656 Z M 128.941406 242.097656 "/><path style=" stroke:none;fill-rule:nonzero;fill:#ffffff;fill-opacity:1;" d="M 132.96875 230.191406 C 132.871094 230.199219 132.785156 230.148438 132.691406 230.128906 C 132.425781 230.011719 132.480469 229.589844 132.742188 229.503906 C 133.191406 229.335938 133.46875 230.105469 132.96875 230.191406 Z M 132.96875 230.191406 "/><path style=" stroke:none;fill-rule:nonzero;fill:#ffffff;fill-opacity:1;" d="M 136.859375 227.089844 C 136.820312 226.929688 136.921875 226.761719 137.082031 226.722656 C 137.242188 226.683594 137.40625 226.785156 137.445312 226.945312 C 137.488281 227.105469 137.386719 227.269531 137.226562 227.308594 C 137.066406 227.347656 136.898438 227.25 136.859375 227.089844 Z M 136.859375 227.089844 "/><path style=" stroke:none;fill-rule:nonzero;fill:#ffffff;fill-opacity:1;" d="M 135.039062 233.214844 C 132.515625 233.214844 130.457031 231.164062 130.457031 228.644531 C 130.457031 226.121094 132.511719 224.070312 135.039062 224.070312 C 137.566406 224.070312 139.621094 226.121094 139.621094 228.644531 C 139.621094 231.164062 137.566406 233.214844 135.039062 233.214844 Z M 135.039062 225.398438 C 133.246094 225.398438 131.789062 226.855469 131.789062 228.644531 C 131.789062 230.433594 133.246094 231.886719 135.039062 231.886719 C 136.832031 231.886719 138.289062 230.433594 138.289062 228.644531 C 138.289062 226.855469 136.832031 225.398438 135.039062 225.398438 Z M 135.039062 225.398438 "/><path style=" stroke:none;fill-rule:nonzero;fill:#ffffff;fill-opacity:1;" d="M 123.71875 246.554688 C 122.742188 245.6875 122.179688 244.4375 122.179688 243.132812 C 122.179688 240.601562 124.246094 238.542969 126.78125 238.542969 C 129.316406 238.542969 131.378906 240.601562 131.378906 243.132812 C 131.378906 243.527344 131.328125 243.917969 131.230469 244.296875 L 129.941406 243.960938 C 130.015625 243.691406 130.046875 243.414062 130.046875 243.132812 C 130.046875 241.332031 128.582031 239.871094 126.78125 239.871094 C 124.976562 239.871094 123.511719 241.335938 123.511719 243.132812 C 123.511719 244.058594 123.910156 244.949219 124.605469 245.566406 Z M 123.71875 246.554688 "/><path style=" stroke:none;fill-rule:nonzero;fill:#fbfaf8;fill-opacity:1;" d="M 103.457031 78.925781 C 106.472656 76.644531 109.574219 74.488281 112.765625 72.460938 C 115.953125 70.433594 119.21875 68.539062 122.5625 66.773438 C 125.90625 65.011719 129.316406 63.390625 132.792969 61.902344 C 136.269531 60.417969 139.800781 59.078125 143.386719 57.882812 C 146.972656 56.683594 150.597656 55.632812 154.269531 54.730469 C 157.941406 53.832031 161.640625 53.078125 165.375 52.480469 C 169.105469 51.878906 172.855469 51.429688 176.625 51.136719 C 180.394531 50.839844 184.167969 50.699219 187.945312 50.710938 C 191.726562 50.722656 195.5 50.890625 199.265625 51.210938 C 203.03125 51.527344 206.78125 52 210.507812 52.625 C 214.234375 53.25 217.933594 54.027344 221.597656 54.953125 C 225.261719 55.878906 228.882812 56.949219 232.460938 58.171875 C 236.039062 59.390625 239.558594 60.753906 243.027344 62.261719 C 246.492188 63.769531 249.890625 65.414062 253.222656 67.199219 C 256.558594 68.984375 259.8125 70.902344 262.988281 72.949219 C 266.164062 75 269.25 77.171875 272.25 79.472656 L 238.320312 123.707031 C 236.523438 122.328125 234.671875 121.023438 232.765625 119.796875 C 230.859375 118.566406 228.910156 117.417969 226.910156 116.347656 C 224.914062 115.277344 222.875 114.289062 220.796875 113.386719 C 218.714844 112.484375 216.605469 111.664062 214.460938 110.933594 C 212.3125 110.199219 210.140625 109.558594 207.945312 109.003906 C 205.746094 108.445312 203.53125 107.980469 201.296875 107.609375 C 199.058594 107.234375 196.8125 106.949219 194.554688 106.757812 C 192.296875 106.566406 190.03125 106.46875 187.765625 106.460938 C 185.5 106.453125 183.234375 106.539062 180.976562 106.714844 C 178.714844 106.890625 176.46875 107.160156 174.230469 107.519531 C 171.992188 107.878906 169.773438 108.332031 167.570312 108.871094 C 165.371094 109.410156 163.195312 110.042969 161.042969 110.757812 C 158.894531 111.476562 156.777344 112.28125 154.691406 113.171875 C 152.609375 114.0625 150.5625 115.035156 148.558594 116.09375 C 146.550781 117.148438 144.59375 118.285156 142.679688 119.503906 C 140.769531 120.71875 138.90625 122.011719 137.101562 123.378906 Z M 103.457031 78.925781 "/><g style="fill:#4b4242;fill-opacity:1;"><g transform="translate(135.761684, 102.325262)"><path style="stroke:none" d="M 7.875 -15.765625 L 0.453125 -12.1875 L 5.140625 -2.484375 L 2.359375 -1.140625 L -8.25 -23.125 L 3.203125 -28.65625 L 4.359375 -26.265625 L -4.3125 -22.078125 L -0.6875 -14.5625 L 6.734375 -18.140625 Z M 7.875 -15.765625 "/></g></g><g style="fill:#4b4242;fill-opacity:1;"><g transform="translate(156.592401, 93.043123)"><path style="stroke:none" d="M 11.5 -14.15625 L 3.078125 -12.25 L 4.984375 -3.8125 L 14.78125 -6.03125 L 15.359375 -3.46875 L 2.5625 -0.578125 L -2.8125 -24.390625 L 9.84375 -27.25 L 10.4375 -24.65625 L 0.78125 -22.46875 L 2.5 -14.8125 L 10.921875 -16.71875 Z M 11.5 -14.15625 "/></g></g><g style="fill:#4b4242;fill-opacity:1;"><g transform="translate(179.314134, 88.435119)"><path style="stroke:none" d="M 18.578125 0.5 L 15.484375 0.421875 L 6.234375 -18.65625 L 5.71875 0.15625 L 2.625 0.078125 L 3.28125 -24.3125 L 6.375 -24.234375 L 15.671875 -5.09375 L 16.171875 -23.96875 L 19.234375 -23.890625 Z M 18.578125 0.5 "/></g></g><g style="fill:#4b4242;fill-opacity:1;"><g transform="translate(206.905442, 90.531439)"><path style="stroke:none" d="M 5.65625 1.375 L 2.6875 0.65625 L 8.4375 -23.0625 L 11.40625 -22.34375 Z M 5.65625 1.375 "/></g></g><g style="fill:#4b4242;fill-opacity:1;"><g transform="translate(221.634153, 94.256238)"><path style="stroke:none" d="M 14.984375 -9.59375 L 23.109375 -16.109375 L 26.375 -14.578125 L 15.46875 -6.328125 L 16.125 7.5625 L 12.84375 6.03125 L 12.640625 -4.578125 L 4.328125 2.03125 L 1.03125 0.484375 L 12.15625 -7.890625 L 11.515625 -21.546875 L 14.765625 -20.03125 Z M 14.984375 -9.59375 "/></g></g><path style=" stroke:none;fill-rule:nonzero;fill:#fbfaf8;fill-opacity:1;" d="M 267.5625 292.300781 C 264.730469 294.480469 261.8125 296.539062 258.8125 298.480469 C 255.808594 300.417969 252.734375 302.234375 249.585938 303.921875 C 246.4375 305.613281 243.222656 307.171875 239.945312 308.597656 C 236.671875 310.027344 233.34375 311.316406 229.960938 312.472656 C 226.578125 313.628906 223.15625 314.644531 219.691406 315.523438 C 216.226562 316.398438 212.730469 317.132812 209.207031 317.726562 C 205.683594 318.316406 202.140625 318.765625 198.578125 319.070312 C 195.019531 319.371094 191.453125 319.527344 187.878906 319.542969 C 184.304688 319.554688 180.734375 319.417969 177.171875 319.140625 C 173.609375 318.863281 170.0625 318.4375 166.535156 317.871094 C 163.007812 317.300781 159.507812 316.59375 156.039062 315.738281 C 152.566406 314.886719 149.136719 313.890625 145.75 312.757812 C 142.359375 311.625 139.019531 310.355469 135.734375 308.953125 C 132.449219 307.546875 129.226562 306.011719 126.066406 304.34375 C 122.90625 302.671875 119.816406 300.878906 116.804688 298.960938 C 113.789062 297.039062 110.859375 295 108.007812 292.84375 L 132.066406 261.101562 C 134.054688 262.609375 136.097656 264.03125 138.199219 265.367188 C 140.300781 266.707031 142.449219 267.957031 144.65625 269.121094 C 146.859375 270.28125 149.105469 271.355469 151.394531 272.332031 C 153.6875 273.3125 156.011719 274.199219 158.375 274.988281 C 160.738281 275.777344 163.128906 276.46875 165.546875 277.0625 C 167.96875 277.660156 170.40625 278.15625 172.867188 278.550781 C 175.324219 278.945312 177.796875 279.242188 180.28125 279.4375 C 182.765625 279.628906 185.25 279.722656 187.742188 279.714844 C 190.234375 279.707031 192.71875 279.597656 195.203125 279.386719 C 197.683594 279.175781 200.15625 278.863281 202.613281 278.449219 C 205.066406 278.039062 207.503906 277.523438 209.917969 276.914062 C 212.335938 276.304688 214.71875 275.59375 217.078125 274.789062 C 219.433594 273.984375 221.753906 273.082031 224.039062 272.085938 C 226.324219 271.09375 228.5625 270.003906 230.757812 268.828125 C 232.953125 267.652344 235.097656 266.386719 237.191406 265.03125 C 239.28125 263.679688 241.316406 262.246094 243.289062 260.726562 Z M 267.5625 292.300781 "/><g style="fill:#4b4242;fill-opacity:1;"><g transform="translate(125.357245, 288.603185)"><path style="stroke:none" d="M 12.296875 4.171875 L 11.734375 4.421875 C 10.148438 5.015625 8.425781 4.804688 6.5625 3.796875 C 4.894531 2.898438 3.882812 1.644531 3.53125 0.03125 C 3.175781 -1.570312 3.535156 -3.382812 4.609375 -5.40625 L 6.25 -8.421875 C 7.40625 -10.566406 8.703125 -11.941406 10.140625 -12.546875 C 11.578125 -13.160156 13.15625 -13.003906 14.875 -12.078125 C 16.332031 -11.285156 17.253906 -10.253906 17.640625 -8.984375 C 18.023438 -7.722656 17.851562 -6.316406 17.125 -4.765625 L 15.1875 -5.796875 C 15.632812 -6.816406 15.769531 -7.71875 15.59375 -8.5 C 15.425781 -9.28125 14.882812 -9.914062 13.96875 -10.40625 C 12.875 -11 11.875 -11.070312 10.96875 -10.625 C 10.070312 -10.175781 9.1875 -9.171875 8.3125 -7.609375 L 6.609375 -4.484375 C 5.773438 -2.941406 5.425781 -1.597656 5.5625 -0.453125 C 5.707031 0.691406 6.335938 1.566406 7.453125 2.171875 C 8.484375 2.734375 9.410156 2.90625 10.234375 2.6875 L 10.65625 2.59375 L 12.5625 -0.953125 L 9.765625 -2.46875 L 10.65625 -4.109375 L 15.390625 -1.5625 Z M 12.296875 4.171875 "/></g></g><g style="fill:#4b4242;fill-opacity:1;"><g transform="translate(144.872831, 298.305119)"><path style="stroke:none" d="M 12.28125 -4.421875 L 6.421875 -6.375 L 4.46875 -0.5 L 11.28125 1.765625 L 10.6875 3.546875 L 1.78125 0.59375 L 7.28125 -15.96875 L 16.078125 -13.046875 L 15.484375 -11.25 L 8.78125 -13.484375 L 7.015625 -8.171875 L 12.875 -6.21875 Z M 12.28125 -4.421875 "/></g></g><g style="fill:#4b4242;fill-opacity:1;"><g transform="translate(163.490265, 303.875969)"><path style="stroke:none" d="M 10.0625 -2.90625 C 10.195312 -3.769531 10.066406 -4.460938 9.671875 -4.984375 C 9.285156 -5.515625 8.519531 -6.09375 7.375 -6.71875 C 6.226562 -7.34375 5.363281 -7.941406 4.78125 -8.515625 C 4.207031 -9.085938 3.804688 -9.707031 3.578125 -10.375 C 3.359375 -11.039062 3.3125 -11.769531 3.4375 -12.5625 C 3.644531 -13.925781 4.273438 -14.976562 5.328125 -15.71875 C 6.390625 -16.457031 7.65625 -16.710938 9.125 -16.484375 C 10.132812 -16.328125 11 -15.960938 11.71875 -15.390625 C 12.4375 -14.816406 12.941406 -14.09375 13.234375 -13.21875 C 13.535156 -12.34375 13.613281 -11.425781 13.46875 -10.46875 L 11.296875 -10.8125 C 11.460938 -11.863281 11.332031 -12.722656 10.90625 -13.390625 C 10.488281 -14.054688 9.796875 -14.460938 8.828125 -14.609375 C 7.953125 -14.742188 7.234375 -14.601562 6.671875 -14.1875 C 6.117188 -13.78125 5.769531 -13.132812 5.625 -12.25 C 5.519531 -11.519531 5.691406 -10.867188 6.140625 -10.296875 C 6.585938 -9.722656 7.320312 -9.164062 8.34375 -8.625 C 9.957031 -7.789062 11.0625 -6.90625 11.65625 -5.96875 C 12.257812 -5.039062 12.460938 -3.914062 12.265625 -2.59375 C 12.046875 -1.1875 11.414062 -0.132812 10.375 0.5625 C 9.34375 1.257812 8.046875 1.488281 6.484375 1.25 C 5.472656 1.09375 4.578125 0.726562 3.796875 0.15625 C 3.023438 -0.40625 2.453125 -1.117188 2.078125 -1.984375 C 1.710938 -2.859375 1.613281 -3.8125 1.78125 -4.84375 L 3.96875 -4.5 C 3.800781 -3.425781 3.96875 -2.550781 4.46875 -1.875 C 4.96875 -1.195312 5.734375 -0.773438 6.765625 -0.609375 C 7.722656 -0.460938 8.476562 -0.597656 9.03125 -1.015625 C 9.59375 -1.429688 9.9375 -2.0625 10.0625 -2.90625 Z M 10.0625 -2.90625 "/></g></g><g style="fill:#4b4242;fill-opacity:1;"><g transform="translate(183.315318, 306.338361)"><path style="stroke:none" d="M 11.84375 -15.75 L 7.25 -15.671875 L 7.484375 -0.109375 L 5.296875 -0.078125 L 5.0625 -15.640625 L 0.484375 -15.578125 L 0.453125 -17.46875 L 11.8125 -17.640625 Z M 11.84375 -15.75 "/></g></g><g style="fill:#4b4242;fill-opacity:1;"><g transform="translate(203.116277, 305.319365)"><path style="stroke:none" d="M 4.125 -0.640625 L 1.953125 -0.3125 L -0.734375 -17.5625 L 1.4375 -17.890625 Z M 4.125 -0.640625 "/></g></g><g style="fill:#4b4242;fill-opacity:1;"><g transform="translate(216.197338, 303.068205)"><path style="stroke:none" d="M 10.484375 -10.8125 C 11.191406 -8.539062 11.25 -6.640625 10.65625 -5.109375 C 10.070312 -3.585938 8.890625 -2.546875 7.109375 -1.984375 C 5.390625 -1.453125 3.847656 -1.625 2.484375 -2.5 C 1.117188 -3.382812 0.0820312 -4.910156 -0.625 -7.078125 L -1.609375 -10.203125 C -2.304688 -12.429688 -2.359375 -14.328125 -1.765625 -15.890625 C -1.179688 -17.460938 -0.0078125 -18.523438 1.75 -19.078125 C 3.5 -19.617188 5.050781 -19.4375 6.40625 -18.53125 C 7.769531 -17.632812 8.8125 -16.078125 9.53125 -13.859375 Z M 7.46875 -13.078125 C 6.914062 -14.835938 6.21875 -16.054688 5.375 -16.734375 C 4.539062 -17.410156 3.53125 -17.566406 2.34375 -17.203125 C 1.1875 -16.835938 0.445312 -16.125 0.125 -15.0625 C -0.195312 -14.007812 -0.0976562 -12.632812 0.421875 -10.9375 L 1.359375 -7.953125 C 1.890625 -6.253906 2.585938 -5.050781 3.453125 -4.34375 C 4.328125 -3.644531 5.351562 -3.476562 6.53125 -3.84375 C 7.707031 -4.207031 8.445312 -4.882812 8.75 -5.875 C 9.0625 -6.875 8.960938 -8.234375 8.453125 -9.953125 Z M 1.484375 -23.65625 L 4.046875 -24.453125 L 2.046875 -20.15625 L 0.328125 -19.625 Z M 1.484375 -23.65625 "/></g></g><g style="fill:#4b4242;fill-opacity:1;"><g transform="translate(237.118221, 295.816353)"><path style="stroke:none" d="M 11.703125 -6.28125 L 9.765625 -5.234375 L -2.75 -13.796875 L 3.609375 -1.9375 L 1.65625 -0.890625 L -6.59375 -16.265625 L -4.640625 -17.3125 L 7.921875 -8.703125 L 1.53125 -20.609375 L 3.453125 -21.65625 Z M 11.703125 -6.28125 "/></g></g></g></svg>