<svg xmlns="http://www.w3.org/2000/svg" xmlns:xlink="http://www.w3.org/1999/xlink" width="500" zoomAndPan="magnify" viewBox="0 0 375 374.999991" height="500" preserveAspectRatio="xMidYMid meet" version="1.2"><defs><clipPath id="638001013b"><path d="M 94.476562 90.222656 L 293.226562 90.222656 L 293.226562 273.222656 L 94.476562 273.222656 Z M 94.476562 90.222656 "/></clipPath><clipPath id="e497bf65fe"><path d="M 56.066406 6.011719 L 331 6.011719 L 331 337 L 56.066406 337 Z M 56.066406 6.011719 "/></clipPath></defs><g id="8e0dd80e7c"><g clip-rule="nonzero" clip-path="url(#638001013b)"><path style=" stroke:none;fill-rule:nonzero;fill:#000000;fill-opacity:1;" d="M 291.535156 265.148438 C 289.378906 257.511719 287.363281 249.847656 286.242188 241.976562 C 285.597656 237.449219 285.511719 232.917969 285.898438 228.367188 C 286.09375 226.03125 286.203125 223.691406 285.980469 221.347656 C 285.734375 218.769531 285.105469 216.308594 283.738281 214.070312 C 283.484375 213.652344 283.308594 213.175781 283.164062 212.703125 C 282.4375 210.277344 281.75 207.839844 281.011719 205.417969 C 280.472656 203.652344 279.9375 201.886719 279.292969 200.160156 C 278.566406 198.222656 277.332031 196.664062 275.476562 195.644531 C 275.09375 195.433594 274.742188 195.160156 274.410156 194.871094 C 274.097656 194.597656 273.832031 194.285156 274.007812 193.789062 C 274.0625 193.640625 273.996094 193.398438 273.898438 193.253906 C 273.59375 192.816406 273.371094 192.335938 272.746094 192.15625 C 272.125 191.980469 272.035156 191.480469 272.386719 190.925781 C 272.457031 190.8125 272.53125 190.695312 272.597656 190.589844 C 272.066406 190.125 271.507812 189.71875 271.050781 189.21875 C 269.546875 187.566406 268.078125 185.882812 266.601562 184.210938 C 266.550781 184.152344 266.535156 184.070312 266.496094 183.984375 C 266.628906 183.832031 266.757812 183.691406 266.878906 183.542969 C 267.777344 182.417969 268.300781 181.121094 268.566406 179.722656 C 268.753906 178.730469 268.375 178.144531 267.402344 177.835938 C 266.957031 177.695312 266.488281 177.648438 266.027344 177.5625 C 265.6875 177.5 265.347656 177.445312 265.007812 177.386719 C 266.554688 177.003906 268.035156 177.234375 269.679688 177.773438 C 269.203125 177.175781 268.835938 176.742188 268.5 176.289062 C 267.734375 175.261719 266.734375 174.558594 265.535156 174.132812 C 265.09375 173.976562 264.648438 173.828125 264.214844 173.648438 C 262.988281 173.128906 262.613281 171.90625 263.367188 170.800781 C 263.664062 170.371094 264.027344 169.988281 264.355469 169.582031 C 264.496094 169.410156 264.617188 169.226562 264.828125 168.941406 C 263.941406 169.144531 263.226562 169.332031 262.5 169.464844 C 261.597656 169.632812 260.773438 169.441406 260.214844 168.664062 C 259.605469 167.820312 259.632812 166.917969 260.140625 166.023438 C 260.269531 165.792969 260.417969 165.570312 260.59375 165.28125 C 259.59375 164.882812 258.65625 164.511719 257.636719 164.105469 C 259.609375 162.300781 260.992188 160.179688 261.964844 157.722656 C 261.078125 157.664062 260.25 158.054688 259.265625 157.75 C 259.816406 157.261719 260.292969 156.839844 260.796875 156.394531 C 260.449219 155.960938 260.148438 155.589844 259.835938 155.203125 C 260.347656 154.757812 260.800781 154.398438 261.210938 153.992188 C 261.601562 153.609375 262.152344 153.371094 262.414062 152.792969 C 261.71875 152.671875 261.089844 152.558594 260.277344 152.417969 C 260.945312 151.988281 261.441406 151.664062 262.023438 151.289062 C 261.082031 150.761719 260.210938 150.269531 259.320312 149.769531 C 259.46875 149.507812 259.566406 149.3125 259.683594 149.128906 C 260.019531 148.59375 260.054688 148.128906 259.667969 147.546875 C 259.234375 146.890625 258.957031 146.125 258.648438 145.390625 C 258.328125 144.625 258.410156 143.847656 258.867188 143.175781 C 259.265625 142.589844 259.769531 142.074219 260.25 141.546875 C 260.507812 141.269531 260.8125 141.035156 261.1875 140.699219 C 259.558594 139.980469 258.074219 139.21875 257.125 137.65625 C 258.878906 136.699219 260.570312 135.769531 262.363281 134.789062 C 262.074219 134.667969 261.917969 134.613281 261.773438 134.539062 C 260.890625 134.09375 259.976562 133.699219 259.140625 133.175781 C 257.605469 132.21875 256.863281 130.792969 257.058594 128.980469 C 257.167969 127.945312 257.3125 126.890625 257.617188 125.902344 C 258.164062 124.113281 258.835938 122.363281 259.46875 120.601562 C 260.117188 118.8125 260.765625 117.019531 260.917969 115.105469 C 261.042969 113.558594 260.660156 112.15625 259.539062 111.015625 C 257.886719 109.335938 255.722656 108.953125 253.542969 109.972656 C 252.40625 110.503906 251.414062 111.246094 250.488281 112.078125 C 249.398438 113.054688 248.34375 114.066406 247.253906 115.039062 C 246.332031 115.867188 245.402344 116.691406 244.429688 117.460938 C 242.394531 119.066406 240.082031 119.695312 237.519531 119.207031 C 235.84375 118.886719 234.191406 118.464844 232.523438 118.105469 C 231.042969 117.785156 229.566406 117.421875 228.074219 117.207031 C 226.335938 116.957031 224.605469 117.191406 222.902344 117.585938 C 221.789062 117.84375 220.753906 117.621094 219.828125 116.992188 C 219.054688 116.464844 218.320312 115.882812 217.585938 115.296875 C 215.628906 113.746094 213.492188 112.507812 211.1875 111.546875 C 206.832031 109.734375 202.253906 108.964844 197.570312 108.777344 C 193.210938 108.601562 188.863281 108.914062 184.519531 109.304688 C 181.332031 109.589844 178.144531 109.832031 174.953125 110.074219 C 174.242188 110.128906 173.523438 110.144531 172.808594 110.125 C 171.585938 110.097656 170.640625 109.570312 170.023438 108.488281 C 169.929688 108.320312 169.804688 108.171875 169.699219 108.011719 C 167.539062 104.691406 162.601562 105.078125 160.6875 107.183594 C 160.226562 107.691406 159.699219 108.148438 159.167969 108.585938 C 158.132812 109.429688 156.832031 109.46875 155.753906 108.648438 C 154.765625 107.902344 153.765625 107.152344 152.871094 106.296875 C 151.140625 104.636719 149.4375 102.945312 147.804688 101.1875 C 145.042969 98.210938 141.933594 95.601562 138.992188 92.820312 C 137.933594 91.820312 136.734375 90.960938 135.304688 90.507812 C 135.199219 90.472656 135.128906 90.320312 135.042969 90.21875 C 133.996094 90.21875 132.945312 90.21875 131.898438 90.21875 C 131.859375 90.324219 131.851562 90.492188 131.78125 90.527344 C 130.265625 91.257812 129.679688 92.558594 129.550781 94.128906 C 129.441406 95.445312 129.65625 96.734375 130.167969 97.933594 C 131.429688 100.910156 132.214844 104.035156 133.117188 107.125 C 133.585938 108.734375 134.167969 110.320312 134.855469 111.847656 C 136.242188 114.933594 138.53125 117.167969 141.621094 118.574219 C 141.820312 118.664062 142.015625 118.765625 142.214844 118.863281 C 142.238281 118.878906 142.253906 118.902344 142.324219 118.96875 C 141.453125 120.378906 140.34375 121.617188 139.046875 122.882812 C 139.8125 123.007812 140.40625 123.066406 140.980469 123.203125 C 141.535156 123.332031 142.09375 123.496094 142.53125 123.96875 C 142.214844 124.644531 141.683594 125.074219 141.15625 125.511719 C 138.9375 127.363281 137.046875 129.503906 135.484375 131.933594 C 133.730469 134.664062 132.429688 137.601562 131.378906 140.660156 C 129.105469 147.304688 126.820312 153.941406 124.542969 160.582031 C 124.433594 160.910156 124.304688 161.132812 123.9375 161.277344 C 121.199219 162.367188 118.480469 163.503906 115.746094 164.597656 C 114.390625 165.140625 113.007812 165.609375 111.652344 166.152344 C 111.097656 166.375 110.554688 166.65625 110.058594 166.996094 C 109.394531 167.445312 109.242188 168.136719 109.398438 168.902344 C 109.429688 169.0625 109.480469 169.222656 109.542969 169.375 C 110.351562 171.351562 110.53125 173.425781 110.53125 175.53125 C 110.527344 177.597656 110.511719 179.664062 110.933594 181.707031 C 111.597656 184.898438 112.828125 187.859375 114.582031 190.597656 C 114.96875 191.203125 115.167969 191.785156 115.148438 192.515625 C 115.082031 195.191406 115.5 197.792969 116.65625 200.230469 C 117.066406 201.097656 117.578125 201.914062 118.070312 202.800781 C 116.363281 205.910156 114.632812 209.066406 112.898438 212.226562 C 112.921875 212.261719 112.945312 212.296875 112.96875 212.335938 C 113.355469 212.117188 113.742188 211.898438 114.128906 211.679688 C 114.539062 211.453125 114.945312 211.226562 115.476562 210.933594 C 115.117188 212.066406 115.179688 213.007812 116.308594 213.554688 C 115.945312 214.066406 115.5625 214.503906 115.300781 215.003906 C 114.878906 215.804688 115.0625 216.503906 115.734375 216.964844 C 115.890625 217.070312 116.0625 217.152344 116.308594 217.285156 C 116.046875 218.230469 115.8125 219.183594 115.519531 220.121094 C 114.015625 224.980469 112.039062 229.636719 109.507812 234.050781 C 108.378906 236.023438 106.996094 237.804688 105.453125 239.46875 C 105.339844 239.585938 105.238281 239.710938 105.175781 239.972656 C 106.164062 239.761719 107.152344 239.554688 108.238281 239.324219 C 105.957031 242.769531 103.382812 245.878906 100.5625 249.0625 C 101.546875 248.863281 102.332031 248.703125 103.296875 248.507812 C 102.933594 249.015625 102.660156 249.402344 102.382812 249.785156 C 100.683594 252.097656 99.058594 254.457031 97.710938 256.996094 C 96.554688 259.167969 95.605469 261.421875 95.085938 263.839844 C 94.953125 264.457031 94.878906 265.085938 94.765625 265.816406 C 94.648438 265.574219 94.570312 265.40625 94.492188 265.238281 C 94.492188 267.058594 94.492188 268.878906 94.492188 270.699219 C 94.769531 270.742188 95.050781 270.835938 95.328125 270.816406 C 95.609375 270.792969 95.882812 270.664062 96.214844 270.566406 C 96.175781 271.023438 96.144531 271.394531 96.113281 271.820312 C 96.648438 271.910156 97.121094 271.992188 97.660156 272.082031 C 98.058594 269.886719 98.441406 267.789062 98.847656 265.546875 C 97.914062 265.882812 97.128906 266.164062 96.28125 266.472656 C 96.324219 266.121094 96.351562 265.824219 96.394531 265.527344 C 96.863281 262.460938 98.035156 259.652344 99.546875 256.96875 C 101.613281 253.304688 104.203125 250.011719 106.796875 246.71875 C 106.945312 246.535156 107.082031 246.339844 107.304688 246.042969 C 106.457031 246.199219 105.753906 246.328125 104.890625 246.488281 C 108.097656 242.609375 110.804688 238.613281 113.238281 234.40625 C 112.117188 235.195312 110.992188 235.980469 109.871094 236.769531 C 110.125 236.105469 110.492188 235.566406 110.820312 235 C 112.914062 231.421875 114.59375 227.652344 116.003906 223.757812 C 116.765625 221.660156 117.492188 219.550781 117.894531 217.347656 C 118 216.789062 118.082031 216.226562 117.941406 215.601562 C 117.402344 215.78125 116.921875 215.941406 116.441406 216.101562 C 116.5625 215.796875 116.765625 215.613281 116.933594 215.40625 C 117.28125 214.980469 117.640625 214.558594 117.941406 214.097656 C 118.386719 213.414062 118.386719 212.703125 117.933594 212.003906 C 117.785156 211.773438 117.65625 211.535156 117.523438 211.308594 C 119.125 209.714844 119.136719 208.773438 118.121094 207.59375 C 117.785156 207.765625 117.441406 207.941406 116.941406 208.195312 C 117.761719 206.710938 118.484375 205.402344 119.238281 204.035156 C 120.90625 205.730469 122.773438 207.011719 124.597656 208.34375 C 126.40625 209.667969 128.078125 211.144531 129.582031 212.804688 C 130.929688 214.296875 132.28125 215.789062 133.554688 217.347656 C 137.402344 222.054688 142.023438 225.777344 147.527344 228.375 C 150.09375 229.585938 152.679688 230.75 155.28125 231.882812 C 159.144531 233.570312 163.035156 235.195312 167.082031 236.394531 C 171.203125 237.621094 175.394531 238.371094 179.710938 238.203125 C 182.304688 238.101562 184.886719 237.839844 187.433594 237.363281 C 192.011719 236.511719 196.582031 235.617188 201.148438 234.722656 C 206.828125 233.605469 212.5 232.472656 218.175781 231.34375 C 221.660156 230.648438 225.160156 230.019531 228.628906 229.234375 C 233.671875 228.097656 238.46875 226.226562 243.121094 223.980469 C 243.347656 223.871094 243.585938 223.78125 243.835938 223.671875 C 243.929688 224.339844 243.984375 224.886719 244.09375 225.425781 C 244.207031 225.992188 244.371094 226.546875 244.515625 227.109375 C 244.605469 227.453125 244.691406 227.800781 244.789062 228.144531 C 245.480469 230.628906 244.289062 233.90625 241.816406 235.488281 C 241.28125 235.828125 240.730469 236.140625 240.191406 236.472656 C 240.042969 236.5625 239.910156 236.679688 239.648438 236.875 C 241.289062 236.976562 242.773438 237.070312 244.402344 237.171875 C 243.164062 238.851562 242.015625 240.410156 240.816406 242.039062 C 241.324219 242.152344 241.71875 242.242188 242.222656 242.355469 C 241.933594 242.765625 241.675781 243.148438 241.410156 243.519531 C 239.972656 245.519531 238.792969 247.664062 237.886719 249.953125 C 237.484375 250.964844 237.492188 250.964844 238.378906 251.640625 C 238.417969 251.671875 238.429688 251.730469 238.480469 251.816406 C 237.398438 253.277344 236.304688 254.753906 235.082031 256.40625 C 235.550781 256.765625 236.003906 257.113281 236.445312 257.453125 C 236.316406 257.640625 236.261719 257.738281 236.191406 257.820312 C 235.269531 258.890625 234.945312 260.125 235.144531 261.511719 C 235.296875 262.574219 235.515625 263.632812 235.5625 264.703125 C 235.664062 266.996094 235.019531 269.050781 233.34375 270.710938 C 233.246094 270.804688 233.097656 270.917969 233.097656 271.023438 C 233.101562 271.738281 233.140625 272.453125 233.171875 273.222656 C 233.527344 272.851562 233.792969 272.550781 234.085938 272.28125 C 235.476562 270.988281 236.425781 269.445312 236.898438 267.601562 C 237.34375 265.878906 237.253906 264.164062 236.917969 262.441406 C 236.765625 261.632812 236.601562 260.824219 236.804688 259.984375 C 237 259.171875 237.441406 258.664062 238.292969 258.546875 C 238.65625 258.5 239.019531 258.429688 239.507812 258.351562 C 238.710938 257.527344 238.011719 256.808594 237.308594 256.085938 C 238.21875 254.867188 239.085938 253.726562 239.933594 252.574219 C 240.777344 251.425781 241.652344 250.296875 242.355469 249.039062 C 241.449219 249.453125 240.542969 249.867188 239.613281 250.296875 C 239.582031 250.144531 239.566406 250.117188 239.574219 250.097656 C 239.621094 249.96875 239.671875 249.84375 239.726562 249.714844 C 240.957031 246.851562 242.644531 244.285156 244.730469 241.976562 C 244.898438 241.789062 245.03125 241.578125 245.203125 241.347656 C 244.609375 241.21875 244.136719 241.117188 243.585938 241 C 244.90625 239.21875 246.15625 237.53125 247.460938 235.769531 C 246.386719 235.558594 245.394531 235.703125 244.449219 235.5 C 244.46875 235.375 244.460938 235.34375 244.476562 235.324219 C 244.605469 235.144531 244.742188 234.972656 244.867188 234.792969 C 246.375 232.625 246.972656 230.273438 246.320312 227.664062 C 246.066406 226.648438 245.792969 225.640625 245.574219 224.617188 C 245.367188 223.628906 245.734375 222.804688 246.378906 222.070312 C 247.957031 222.65625 249.476562 223.21875 250.996094 223.792969 C 252.761719 224.464844 254.378906 225.394531 255.804688 226.648438 C 256.382812 227.15625 256.941406 227.691406 257.542969 228.175781 C 258.613281 229.042969 259.65625 229.957031 260.804688 230.710938 C 262.792969 232.023438 265.007812 232.472656 267.363281 231.980469 C 268.917969 231.65625 270.144531 230.835938 271 229.382812 C 270.527344 229.117188 270.085938 228.871094 269.660156 228.632812 C 268.566406 229.867188 268.175781 230.136719 266.972656 230.40625 C 264.871094 230.867188 262.964844 230.332031 261.261719 229.117188 C 260.140625 228.320312 259.089844 227.417969 258.070312 226.496094 C 256.128906 224.746094 254.0625 223.214844 251.582031 222.304688 C 250.910156 222.058594 250.226562 221.835938 249.570312 221.550781 C 248.058594 220.898438 246.457031 220.371094 245.066406 219.511719 C 240.4375 216.648438 237.792969 212.40625 236.882812 207.074219 C 236.703125 206.03125 236.589844 204.957031 236.757812 203.925781 C 237.539062 203.925781 238.265625 203.925781 239.019531 203.925781 C 238.8125 207.027344 239.667969 209.648438 242.148438 211.515625 C 244.625 213.378906 247.351562 213.546875 250.140625 212.332031 C 250.207031 212.410156 250.230469 212.429688 250.238281 212.453125 C 250.3125 212.660156 250.375 212.875 250.453125 213.078125 C 251.882812 216.800781 254.546875 219.082031 258.460938 219.84375 C 261.09375 220.355469 263.253906 219.15625 264.191406 216.644531 C 264.53125 215.730469 264.726562 214.730469 264.800781 213.753906 C 264.941406 211.914062 264.945312 210.0625 265 208.21875 C 265.007812 208.03125 264.972656 207.84375 264.953125 207.597656 C 264.449219 207.597656 263.980469 207.597656 263.457031 207.597656 C 263.417969 208.324219 263.378906 208.980469 263.351562 209.640625 C 263.285156 211.128906 263.253906 212.617188 263.160156 214.101562 C 263.09375 215.128906 262.800781 216.105469 262.210938 216.96875 C 261.511719 218 260.511719 218.453125 259.296875 218.347656 C 255.78125 218.046875 252.660156 215.375 251.789062 211.945312 C 251.722656 211.691406 251.683594 211.367188 251.785156 211.144531 C 252.585938 209.433594 252.75 207.597656 252.925781 205.757812 C 253.050781 204.46875 253.214844 203.1875 253.707031 201.96875 C 254.152344 200.855469 254.808594 199.941406 255.914062 199.398438 C 256.027344 199.339844 256.117188 199.238281 256.230469 199.144531 C 256.066406 198.675781 255.914062 198.246094 255.746094 197.769531 C 255.550781 197.835938 255.421875 197.871094 255.304688 197.921875 C 253.769531 198.601562 252.851562 199.84375 252.230469 201.339844 C 251.742188 202.515625 251.53125 203.761719 251.375 205.027344 C 251.195312 206.472656 250.964844 207.910156 250.738281 209.347656 C 250.628906 210.03125 250.191406 210.46875 249.589844 210.769531 C 248.09375 211.515625 246.550781 211.683594 244.9375 211.203125 C 241.933594 210.308594 240.167969 207.148438 240.703125 203.863281 C 240.738281 203.65625 240.828125 203.425781 240.960938 203.265625 C 242.148438 201.835938 242.613281 200.117188 243.003906 198.355469 C 243.242188 197.28125 243.480469 196.203125 243.808594 195.15625 C 244.242188 193.75 244.96875 192.535156 246.324219 191.804688 C 246.386719 191.769531 246.417969 191.679688 246.492188 191.578125 C 246.320312 191.144531 246.144531 190.699219 245.910156 190.105469 C 245.210938 190.652344 244.589844 191.0625 244.058594 191.566406 C 243.199219 192.375 242.664062 193.417969 242.320312 194.53125 C 241.984375 195.636719 241.726562 196.765625 241.460938 197.890625 C 241.164062 199.152344 240.863281 200.410156 240.207031 201.546875 C 240.007812 201.898438 239.78125 202.164062 239.332031 202.210938 C 235.164062 202.667969 232.21875 200.273438 231.046875 197.46875 C 230.101562 195.207031 229.945312 192.871094 230.558594 190.507812 C 231.484375 186.941406 233.300781 184.019531 236.738281 182.359375 C 237.804688 181.84375 238.902344 181.402344 240.007812 180.980469 C 241.011719 180.59375 242.054688 180.363281 243.152344 180.355469 C 243.78125 180.351562 244.425781 180.261719 245.03125 180.097656 C 246.332031 179.746094 247.640625 179.726562 248.96875 179.8125 C 251.175781 179.957031 253.335938 180.273438 255.4375 181.039062 C 257.195312 181.675781 258.992188 182.261719 260.820312 182.609375 C 262.515625 182.929688 263.851562 183.699219 265.007812 184.898438 C 265.351562 185.257812 265.710938 185.601562 266.042969 185.972656 C 267.457031 187.554688 268.867188 189.140625 270.269531 190.734375 C 270.40625 190.890625 270.570312 191.105469 270.566406 191.292969 C 270.5625 192.386719 271.132812 193.101562 272.011719 193.632812 C 272.273438 193.789062 272.371094 194 272.40625 194.300781 C 272.492188 195.109375 272.894531 195.761719 273.53125 196.25 C 273.921875 196.550781 274.332031 196.835938 274.761719 197.082031 C 276 197.792969 276.921875 198.796875 277.5 200.089844 C 277.894531 200.96875 278.257812 201.867188 278.535156 202.785156 C 279.554688 206.128906 280.523438 209.488281 281.53125 212.835938 C 281.738281 213.519531 281.949219 214.226562 282.316406 214.824219 C 283.527344 216.765625 284.074219 218.902344 284.34375 221.140625 C 284.636719 223.5625 284.488281 225.988281 284.289062 228.40625 C 283.984375 232.039062 283.929688 235.664062 284.3125 239.296875 C 284.703125 243 285.328125 246.660156 286.101562 250.296875 C 287.425781 256.523438 289.140625 262.644531 290.902344 268.757812 C 291.167969 269.675781 291.433594 270.59375 291.714844 271.578125 C 292.25 271.414062 292.703125 271.273438 293.210938 271.117188 C 292.632812 269.0625 292.089844 267.105469 291.535156 265.148438 Z M 232.945312 202.285156 C 233.675781 202.664062 234.378906 203.03125 235.050781 203.378906 C 234.949219 211.125 238.175781 217.042969 244.699219 221.277344 C 244.59375 221.359375 244.507812 221.449219 244.402344 221.503906 C 239.140625 224.273438 233.652344 226.472656 227.835938 227.757812 C 223.855469 228.632812 219.847656 229.367188 215.851562 230.160156 C 210.988281 231.125 206.128906 232.089844 201.265625 233.042969 C 196.671875 233.949219 192.082031 234.867188 187.480469 235.726562 C 184.988281 236.191406 182.46875 236.488281 179.929688 236.59375 C 175.128906 236.789062 170.503906 235.859375 165.964844 234.375 C 161.878906 233.035156 157.941406 231.3125 154.003906 229.601562 C 151.78125 228.632812 149.589844 227.59375 147.417969 226.523438 C 142.726562 224.210938 138.730469 221.011719 135.382812 216.996094 C 134.128906 215.492188 132.828125 214.027344 131.539062 212.554688 C 129.3125 210.007812 126.746094 207.847656 123.984375 205.90625 C 122.355469 204.761719 120.8125 203.523438 119.5625 201.949219 C 118.152344 200.171875 117.375 198.140625 117.003906 195.933594 C 116.890625 195.261719 116.835938 194.578125 116.738281 193.769531 C 117.890625 194.941406 118.878906 196.015625 119.9375 197.011719 C 123.636719 200.476562 127.929688 203.046875 132.496094 205.183594 C 135.34375 206.515625 138.234375 207.734375 141.324219 208.414062 C 143.835938 208.96875 146.34375 209.050781 148.851562 208.378906 C 151.589844 207.644531 153.742188 206.109375 155.222656 203.703125 C 156.011719 202.417969 156.664062 201.042969 157.367188 199.703125 C 157.941406 198.605469 158.453125 197.472656 159.0625 196.394531 C 160.070312 194.601562 161.472656 193.183594 163.285156 192.191406 C 164.113281 191.734375 164.996094 191.402344 165.9375 191.316406 C 167.863281 191.140625 169.421875 191.882812 170.464844 193.480469 C 171.027344 194.347656 171.402344 195.34375 171.777344 196.316406 C 172.101562 197.160156 172.3125 198.050781 172.554688 198.925781 C 173.332031 201.71875 174.875 204.023438 177.03125 205.929688 C 180.171875 208.703125 183.796875 210.660156 187.695312 212.125 C 194.082031 214.519531 200.667969 215.3125 207.445312 214.484375 C 215.59375 213.488281 222.890625 210.394531 229.460938 205.523438 C 230.742188 204.574219 232.054688 203.648438 232.945312 202.285156 Z M 265.367188 183.023438 C 265.226562 182.914062 265.070312 182.808594 264.929688 182.6875 C 264.019531 181.882812 262.964844 181.4375 261.769531 181.179688 C 260.023438 180.796875 258.269531 180.378906 256.601562 179.757812 C 254.117188 178.835938 251.589844 178.269531 248.945312 178.214844 C 248.789062 178.210938 248.632812 178.183594 248.398438 178.160156 C 248.863281 177.125 249.40625 176.175781 249.152344 175.046875 C 249.023438 174.46875 248.78125 173.960938 248.289062 173.527344 C 248.179688 173.59375 248.046875 173.640625 247.964844 173.730469 C 245.890625 176.078125 243.226562 177.460938 240.289062 178.390625 C 237.929688 179.136719 235.503906 179.417969 233.039062 179.472656 C 229.972656 179.539062 226.917969 179.34375 223.863281 179.128906 C 221.800781 178.984375 219.734375 178.796875 217.671875 178.78125 C 213.421875 178.746094 209.171875 178.730469 204.929688 178.867188 C 201.597656 178.972656 198.265625 179.25 194.949219 179.582031 C 189.519531 180.128906 184.128906 180.972656 178.789062 182.113281 C 176.039062 182.699219 173.308594 183.355469 170.554688 183.914062 C 167.535156 184.527344 164.492188 184.730469 161.449219 184.011719 C 159.53125 183.558594 157.734375 182.789062 155.988281 181.898438 C 152.234375 179.980469 148.453125 178.117188 144.519531 176.59375 C 140.28125 174.949219 136.015625 173.386719 131.769531 171.773438 C 129.683594 170.980469 127.613281 170.148438 125.539062 169.332031 C 125.4375 169.292969 125.339844 169.246094 125.160156 169.164062 C 125.351562 168.957031 125.515625 168.792969 125.664062 168.613281 C 125.839844 168.402344 126.023438 168.191406 126.164062 167.957031 C 126.769531 166.941406 126.515625 166.164062 125.4375 165.703125 C 125.335938 165.660156 125.234375 165.628906 125.027344 165.554688 C 125.257812 165.386719 125.421875 165.265625 125.589844 165.148438 C 125.882812 164.941406 126.207031 164.773438 126.460938 164.527344 C 127.03125 163.96875 127.164062 163.453125 126.6875 162.832031 C 125.921875 161.839844 126.097656 160.921875 126.476562 159.839844 C 128.648438 153.65625 130.753906 147.449219 132.878906 141.246094 C 134.15625 137.523438 135.789062 133.988281 138.210938 130.851562 C 139.394531 129.316406 140.753906 127.953125 142.230469 126.699219 C 142.710938 126.292969 143.199219 125.863281 143.570312 125.363281 C 144.46875 124.152344 144.210938 123.011719 142.933594 122.214844 C 142.75 122.097656 142.550781 122.007812 142.296875 121.871094 C 142.394531 121.707031 142.476562 121.546875 142.578125 121.402344 C 142.984375 120.8125 143.425781 120.246094 143.792969 119.632812 C 144.003906 119.285156 144.109375 118.875 144.242188 118.484375 C 144.371094 118.105469 144.238281 117.84375 143.847656 117.71875 C 143.636719 117.65625 143.429688 117.582031 143.21875 117.503906 C 139.472656 116.136719 137.003906 113.488281 135.695312 109.78125 C 134.898438 107.527344 134.3125 105.195312 133.59375 102.914062 C 133.105469 101.367188 132.574219 99.832031 132.015625 98.308594 C 131.621094 97.246094 131.207031 96.1875 131.164062 95.046875 C 131.140625 94.453125 131.207031 93.832031 131.375 93.265625 C 131.609375 92.472656 132.121094 92.054688 133.058594 91.984375 C 134.570312 91.863281 135.808594 92.304688 137.019531 93.335938 C 136.46875 93.429688 136.003906 93.507812 135.542969 93.585938 C 135.539062 93.625 135.535156 93.664062 135.527344 93.703125 C 135.691406 93.75 135.851562 93.824219 136.019531 93.847656 C 137.957031 94.132812 139.433594 95.132812 140.5625 96.6875 C 139.675781 96.6875 138.800781 96.6875 137.921875 96.6875 C 137.902344 96.738281 137.878906 96.789062 137.855469 96.839844 C 140.128906 97.46875 141.945312 98.757812 143.449219 100.570312 C 142.601562 100.46875 141.816406 100.375 141.035156 100.28125 C 141.015625 100.339844 140.996094 100.394531 140.980469 100.453125 C 141.617188 100.78125 142.277344 101.070312 142.882812 101.457031 C 143.503906 101.855469 144.101562 102.3125 144.652344 102.804688 C 145.203125 103.292969 145.6875 103.859375 146.164062 104.453125 C 145.398438 104.28125 144.707031 103.871094 143.820312 104.011719 C 144.332031 104.550781 145.011719 104.652344 145.554688 104.992188 C 146.113281 105.347656 146.691406 105.667969 147.238281 106.042969 C 147.78125 106.414062 148.300781 106.828125 148.816406 107.242188 C 149.324219 107.652344 149.8125 108.089844 150.277344 108.578125 C 149.582031 108.441406 148.910156 108.285156 148.046875 108.492188 C 149.453125 109.25 150.894531 109.542969 152.203125 110.355469 C 151.363281 110.847656 150.40625 110.5 149.703125 111.125 C 151.597656 111.003906 153.296875 111.480469 154.96875 112.652344 C 153.851562 112.71875 152.894531 112.777344 151.9375 112.835938 C 151.933594 112.890625 151.933594 112.949219 151.929688 113.007812 C 152.1875 113.078125 152.449219 113.144531 152.707031 113.222656 C 153 113.304688 153.304688 113.367188 153.566406 113.503906 C 153.769531 113.609375 154.03125 113.800781 154.0625 113.988281 C 154.125 114.335938 153.753906 114.378906 153.503906 114.472656 C 153.257812 114.5625 153.007812 114.636719 152.671875 114.75 C 152.902344 114.945312 153.039062 115.0625 153.175781 115.179688 C 153.152344 115.234375 153.148438 115.308594 153.113281 115.320312 C 152.703125 115.5 152.300781 115.628906 151.839844 115.433594 C 151.703125 115.371094 151.425781 115.421875 151.324219 115.53125 C 150.808594 116.0625 150.25 116.574219 149.859375 117.195312 C 149.3125 118.066406 149.535156 118.777344 150.382812 119.402344 C 150.507812 119.496094 150.640625 119.589844 150.785156 119.695312 C 149.34375 120.589844 148.257812 120.328125 146.660156 118.78125 C 146.898438 119.417969 147.308594 119.949219 147.78125 120.429688 C 148.242188 120.894531 148.75 121.308594 149.246094 121.753906 C 148.566406 122.109375 148.191406 122.089844 147.207031 121.757812 C 147.492188 122.085938 147.757812 122.4375 148.066406 122.746094 C 148.378906 123.054688 148.722656 123.335938 149.078125 123.59375 C 149.453125 123.859375 149.859375 124.082031 150.25 124.324219 C 150.226562 124.375 150.207031 124.425781 150.183594 124.476562 C 149.164062 124.183594 148.140625 123.886719 147.140625 123.601562 C 147.398438 124.300781 147.398438 124.300781 149.945312 125.707031 C 147.902344 127.875 145.589844 129.5625 142.613281 130.417969 C 143.5 131.136719 144.457031 131.363281 145.476562 131.410156 C 146.402344 131.453125 146.699219 131.574219 147.335938 132.210938 C 146.03125 133.289062 144.488281 133.71875 142.839844 134.058594 C 144.09375 134.363281 145.347656 134.667969 146.761719 135.007812 C 145.351562 136.335938 143.761719 136.867188 141.863281 137.105469 C 143.75 137.871094 145.398438 137.667969 147.066406 136.761719 C 147.144531 136.976562 147.238281 137.164062 147.28125 137.359375 C 147.859375 140.03125 147.5625 142.613281 146.523438 145.128906 C 146.25 145.789062 145.972656 146.449219 145.746094 147.128906 C 145.535156 147.757812 145.46875 148.398438 145.597656 149.078125 C 145.855469 150.433594 145.949219 151.800781 145.847656 153.1875 C 145.699219 155.222656 145.640625 157.261719 145.480469 159.292969 C 145.257812 162.183594 144.726562 165.019531 143.753906 167.765625 C 143.710938 167.894531 143.679688 168.027344 143.648438 168.160156 C 143.640625 168.179688 143.660156 168.207031 143.703125 168.339844 C 143.964844 168.246094 144.246094 168.179688 144.496094 168.050781 C 145.488281 167.550781 146.199219 166.746094 146.75 165.808594 C 147.140625 165.144531 147.4375 164.421875 147.839844 163.765625 C 148.308594 162.992188 148.792969 162.21875 149.371094 161.527344 C 149.941406 160.835938 150.132812 160.878906 150.777344 161.484375 C 151.234375 161.914062 151.6875 162.347656 152.195312 162.828125 C 153.082031 160.828125 153.214844 158.769531 152.953125 156.578125 C 153.886719 157.105469 154.523438 157.816406 155.144531 158.574219 C 154.945312 157.519531 154.503906 156.554688 154.035156 155.503906 C 155.183594 155.417969 156 155.851562 156.746094 156.847656 C 156.699219 156.371094 156.648438 156.128906 156.65625 155.886719 C 156.671875 155.402344 156.796875 154.960938 157.269531 154.703125 C 157.714844 154.457031 158.074219 154.503906 158.339844 154.9375 C 158.566406 155.308594 158.730469 155.722656 158.878906 156.136719 C 159.1875 157.003906 159.464844 157.886719 159.90625 158.734375 C 159.851562 156.828125 159.796875 154.917969 159.738281 152.929688 C 160.320312 153.148438 160.640625 153.496094 160.714844 154.023438 C 160.800781 154.621094 160.859375 155.226562 160.855469 155.828125 C 160.851562 157.8125 161.429688 159.625 162.355469 161.351562 C 162.492188 161.605469 162.648438 161.84375 162.949219 162.039062 C 163.246094 160.269531 163.542969 158.5 163.855469 156.652344 C 164.238281 156.820312 164.503906 156.9375 164.84375 157.089844 C 165.230469 156.417969 165.613281 155.761719 166.042969 155.023438 C 166.398438 155.160156 166.742188 155.292969 167.1875 155.460938 C 167.652344 154.164062 167.746094 152.863281 167.394531 151.449219 C 167.976562 151.699219 168.484375 151.914062 169.085938 152.167969 C 169.1875 151.867188 169.277344 151.648438 169.332031 151.421875 C 169.78125 149.6875 170.582031 148.136719 171.722656 146.75 C 172.1875 146.1875 172.746094 145.859375 173.597656 145.769531 C 172.5625 147.558594 171.765625 149.367188 171.257812 151.316406 C 173.847656 148.78125 176.410156 146.269531 179.058594 143.675781 C 179.289062 146.046875 178.964844 148.273438 178.347656 150.609375 C 178.609375 150.464844 178.769531 150.394531 178.90625 150.300781 C 181.011719 148.8125 182.511719 146.875 183.050781 144.332031 C 183.234375 143.464844 183.550781 142.933594 184.359375 142.574219 C 184.867188 142.351562 185.269531 141.898438 185.703125 141.558594 C 185.257812 141.339844 184.828125 141.222656 184.53125 140.960938 C 184.042969 140.527344 183.828125 139.910156 183.738281 139.269531 C 183.683594 138.863281 183.695312 138.445312 183.695312 138.035156 C 183.703125 136.71875 183.570312 136.246094 182.867188 135.214844 C 185.289062 134.105469 187.007812 132.351562 187.804688 129.738281 C 188.089844 131.066406 188.046875 132.402344 188.03125 133.730469 C 188.015625 135.050781 187.960938 136.375 187.855469 137.691406 C 187.746094 139.035156 187.558594 140.367188 187.386719 141.882812 C 188.09375 140.160156 188.695312 138.570312 189.394531 137.019531 C 190.089844 135.472656 190.882812 133.964844 191.746094 132.492188 C 191.558594 133.796875 191.3125 135.09375 191.199219 136.402344 C 191.085938 137.71875 191.316406 139.023438 191.628906 140.367188 C 192.554688 140.128906 193.1875 139.5 193.996094 139.011719 C 194.128906 139.515625 194.03125 139.96875 193.871094 140.375 C 193.613281 141.039062 193.28125 141.679688 192.964844 142.316406 C 192.648438 142.957031 192.277344 143.574219 191.984375 144.226562 C 191.601562 145.078125 191.632812 145.9375 192.125 146.757812 C 192.296875 147.039062 192.449219 147.335938 192.597656 147.628906 C 193.035156 148.503906 193.074219 149.429688 192.933594 150.375 C 192.835938 151.027344 192.746094 151.683594 192.609375 152.328125 C 192.378906 153.433594 192.355469 154.511719 192.992188 155.574219 C 192.429688 155.632812 191.945312 155.65625 191.46875 155.730469 C 190.867188 155.828125 190.394531 156.144531 190.101562 156.695312 C 189.757812 157.335938 189.824219 157.878906 190.421875 158.292969 C 191.535156 159.0625 191.578125 159.15625 190.8125 160.507812 C 189.394531 163.011719 188.5625 165.691406 188.332031 168.589844 C 189.84375 166.695312 191.289062 164.757812 192.765625 162.816406 C 192.429688 164.535156 192.09375 166.257812 191.726562 168.136719 C 192.035156 167.972656 192.203125 167.914062 192.339844 167.808594 C 193.21875 167.132812 193.855469 166.261719 194.128906 165.191406 C 194.507812 163.730469 194.78125 162.238281 195.117188 160.765625 C 195.320312 159.878906 195.515625 158.992188 195.78125 158.125 C 196.070312 157.191406 196.582031 156.375 197.316406 155.710938 C 197.433594 155.609375 197.566406 155.527344 197.847656 155.316406 C 197.457031 157.945312 197.09375 160.394531 196.71875 162.914062 C 197.3125 162.289062 197.851562 161.726562 198.390625 161.160156 C 198.445312 161.1875 198.496094 161.21875 198.550781 161.246094 C 198.226562 163.429688 197.898438 165.609375 197.574219 167.789062 C 197.613281 167.808594 197.652344 167.832031 197.691406 167.851562 C 199.050781 165.984375 200.40625 164.117188 201.867188 162.105469 C 201.878906 162.375 201.898438 162.488281 201.890625 162.597656 C 201.710938 164.628906 201.523438 166.65625 201.351562 168.6875 C 201.285156 169.472656 201.46875 170.171875 202.199219 170.613281 C 202.777344 170.960938 203.109375 170.851562 203.304688 170.207031 C 203.652344 169.0625 204.144531 167.996094 204.902344 167.058594 C 205.023438 166.910156 205.148438 166.765625 205.285156 166.628906 C 205.3125 166.597656 205.382812 166.613281 205.488281 166.597656 C 205.765625 169.40625 206.046875 172.214844 206.335938 175.117188 C 206.773438 174.8125 207.09375 174.554688 207.445312 174.351562 C 208.851562 173.539062 210.269531 172.75 211.675781 171.933594 C 212.054688 171.714844 212.386719 171.726562 212.746094 171.96875 C 213.109375 172.210938 213.496094 172.414062 213.859375 172.628906 C 213.933594 172.558594 214 172.527344 214.003906 172.488281 C 214.308594 170.753906 215.640625 169.859375 217.320312 170.390625 C 218.179688 170.65625 218.964844 171.144531 219.792969 171.519531 C 220.640625 171.90625 221.488281 172.300781 222.355469 172.644531 C 222.671875 172.769531 223.046875 172.757812 223.511719 172.824219 C 223.625 171.335938 223.730469 169.929688 223.832031 168.523438 C 224.507812 169.445312 224.917969 170.472656 225.253906 171.53125 C 225.582031 172.578125 225.847656 173.644531 226.152344 174.738281 C 227.828125 173.585938 229.527344 172.464844 231.171875 171.269531 C 232.144531 170.5625 232.804688 169.574219 233.234375 168.433594 C 233.6875 167.234375 233.582031 166.117188 232.871094 165.050781 C 232.488281 164.476562 232.121094 163.894531 231.769531 163.304688 C 231.40625 162.6875 231.503906 162.085938 231.90625 161.523438 C 232.246094 161.050781 232.628906 160.664062 233.34375 161.007812 C 233.304688 159.59375 232.753906 158.453125 231.898438 157.316406 C 235.957031 156.59375 239.546875 155.007812 242.652344 152.328125 C 240.277344 152.785156 238.089844 152.394531 236.011719 151.035156 C 236.335938 150.816406 236.632812 150.925781 236.898438 150.945312 C 240.074219 151.214844 242.902344 150.304688 245.398438 148.382812 C 246.175781 147.785156 246.839844 147.039062 247.503906 146.261719 C 244.03125 148.035156 240.402344 148.695312 236.570312 148.121094 C 232.746094 147.546875 229.453125 145.929688 226.726562 143.035156 C 228.65625 142.414062 230.363281 141.554688 231.894531 140.277344 C 231.171875 139.910156 230.484375 139.5625 229.796875 139.210938 C 229.8125 139.160156 229.824219 139.105469 229.835938 139.050781 C 229.980469 139.015625 230.125 138.964844 230.269531 138.945312 C 231.484375 138.769531 232.519531 138.269531 233.394531 137.394531 C 233.648438 137.144531 234.050781 137 234.410156 136.90625 C 235.617188 136.597656 236.753906 136.140625 237.882812 135.382812 C 236.980469 134.574219 236.113281 133.796875 235.1875 132.96875 C 237.074219 132.480469 238.753906 131.757812 240.277344 130.6875 C 242.019531 129.460938 243.410156 127.917969 244.472656 126.074219 C 245.023438 125.121094 245.550781 124.152344 246.117188 123.207031 C 246.816406 122.035156 247.644531 120.980469 248.910156 120.355469 C 248.949219 120.335938 248.964844 120.265625 249.019531 120.167969 C 248.097656 120.335938 247.214844 120.496094 246.328125 120.65625 C 246.316406 120.625 246.304688 120.589844 246.296875 120.558594 C 246.5 120.464844 246.699219 120.363281 246.90625 120.277344 C 249.660156 119.121094 251.8125 117.257812 253.4375 114.761719 C 254.136719 113.683594 254.867188 112.625 255.59375 111.539062 C 253.789062 112.027344 252.363281 113.28125 250.671875 114.230469 C 251.570312 113.027344 253.882812 111.394531 255.171875 111.125 C 257.03125 110.738281 259.195312 111.949219 259.3125 114.371094 C 259.339844 114.859375 259.269531 115.359375 259.1875 115.847656 C 258.953125 117.234375 258.519531 118.5625 257.960938 119.984375 C 257.878906 119.707031 257.832031 119.546875 257.769531 119.34375 C 257.613281 119.402344 257.464844 119.453125 257.207031 119.546875 C 257.5625 118.636719 257.636719 117.761719 257.472656 116.726562 C 256.859375 117.148438 256.335938 117.503906 255.8125 117.863281 C 256.453125 116.433594 256.839844 114.984375 257.175781 113.519531 C 257.195312 113.445312 257.15625 113.363281 257.132812 113.207031 C 256.632812 113.492188 256.171875 113.757812 255.707031 114.023438 C 255.730469 114.074219 255.75 114.125 255.773438 114.175781 C 255.953125 114.148438 256.132812 114.121094 256.417969 114.078125 C 255.964844 115.777344 255.171875 117.257812 254.152344 118.757812 C 255.179688 118.703125 256.023438 118.359375 256.992188 117.957031 C 256.707031 119.347656 256.105469 120.46875 255.4375 121.621094 C 255.886719 121.800781 256.28125 121.46875 256.8125 121.511719 C 255.738281 123.710938 254.5625 125.777344 253.367188 128.027344 C 254.175781 127.699219 254.863281 127.417969 255.605469 127.113281 C 255.609375 127.855469 255.296875 128.4375 255.011719 129.015625 C 253.609375 131.832031 252.054688 134.558594 250.226562 137.125 C 249.691406 137.878906 249.152344 138.628906 248.65625 139.425781 C 250.027344 138.847656 251.308594 138.132812 252.488281 137.1875 C 251.550781 139.394531 250.421875 141.496094 249.296875 143.835938 C 249.933594 143.589844 250.417969 143.402344 250.976562 143.183594 C 250.847656 144.769531 250.371094 146.171875 249.625 147.535156 C 250.324219 147.179688 251.035156 146.960938 251.933594 146.984375 C 251.277344 148.957031 250.292969 150.675781 249.191406 152.335938 C 248.078125 154.019531 246.773438 155.550781 245.246094 156.964844 C 246.457031 156.757812 249.125 154.308594 250.269531 152.613281 C 251.550781 150.71875 252.660156 147.992188 252.664062 146.4375 C 252.125 146.4375 251.585938 146.4375 250.972656 146.4375 C 251.21875 146.027344 251.460938 145.667969 251.652344 145.285156 C 252.195312 144.207031 252.046875 143.457031 251.101562 142.585938 C 252.597656 140.566406 253.441406 138.296875 253.492188 135.652344 C 252.824219 135.996094 252.238281 136.296875 251.648438 136.601562 C 251.617188 136.554688 251.582031 136.503906 251.550781 136.457031 C 253.066406 134.671875 254.339844 132.722656 255.523438 130.472656 C 255.753906 131.527344 255.925781 132.421875 256.640625 133.058594 C 257.3125 133.660156 257.96875 134.28125 258.695312 134.953125 C 257.457031 135.628906 256.210938 136.304688 254.917969 137.007812 C 255.671875 138.703125 256.785156 140.058594 258.355469 141.09375 C 258.191406 141.3125 258.042969 141.503906 257.898438 141.699219 C 256.851562 143.078125 256.546875 144.574219 257.222656 146.203125 C 257.527344 146.9375 257.875 147.65625 258.195312 148.375 C 257.820312 148.988281 257.441406 149.609375 257.007812 150.320312 C 257.628906 150.699219 258.15625 151.023438 258.785156 151.40625 C 257.824219 152.039062 256.902344 152.644531 255.84375 153.339844 C 256.90625 153.515625 257.792969 153.664062 258.726562 153.820312 C 258.585938 154.390625 257.9375 154.492188 257.6875 155.019531 C 257.800781 155.1875 257.921875 155.394531 258.0625 155.585938 C 258.207031 155.78125 258.371094 155.960938 258.554688 156.1875 C 257.917969 156.75 257.308594 157.296875 256.65625 157.875 C 257.390625 158.679688 258.234375 159.199219 259.320312 159.449219 C 258.167969 161.597656 256.441406 163.144531 254.425781 164.582031 C 255.796875 165.121094 257.042969 165.613281 258.320312 166.121094 C 258.039062 167.28125 258.140625 168.347656 258.738281 169.339844 C 259.332031 170.324219 260.28125 170.800781 261.367188 171.152344 C 261.289062 172.1875 261.472656 173.164062 262.09375 174.03125 C 262.722656 174.914062 263.71875 175.195312 264.644531 175.667969 C 264.105469 175.800781 263.5625 175.910156 263.03125 176.074219 C 262.695312 176.179688 262.351562 176.320312 262.066406 176.519531 C 261.25 177.09375 261.324219 178.070312 262.226562 178.5 C 262.640625 178.699219 263.117188 178.800781 263.574219 178.875 C 264.414062 179.015625 265.265625 179.097656 266.113281 179.214844 C 266.378906 179.25 266.644531 179.308594 266.964844 179.367188 C 266.789062 180.773438 266.054688 181.871094 265.367188 183.023438 Z M 265.367188 183.023438 "/></g><path style=" stroke:none;fill-rule:nonzero;fill:#000000;fill-opacity:1;" d="M 138.925781 263.5625 C 139.511719 262.96875 140.019531 262.453125 140.648438 261.8125 C 139.484375 261.757812 138.515625 261.714844 137.503906 261.671875 C 137.539062 261.105469 137.566406 260.648438 137.597656 260.152344 C 134.714844 259.832031 131.972656 260.210938 129.308594 261.332031 C 129.210938 260.882812 129.128906 260.535156 129.054688 260.191406 C 128.957031 259.730469 128.683594 259.460938 128.210938 259.425781 C 127.828125 259.398438 127.4375 259.347656 127.058594 259.382812 C 126.515625 259.441406 125.964844 259.523438 125.433594 259.671875 C 124.628906 259.890625 123.929688 259.746094 123.238281 259.292969 C 122.167969 258.59375 120.992188 258.117188 119.738281 257.867188 C 117.578125 257.433594 115.40625 257.484375 113.230469 257.726562 C 113.128906 257.734375 113.035156 257.796875 112.871094 257.859375 C 112.925781 258.328125 112.980469 258.78125 113.042969 259.308594 C 113.769531 259.257812 114.449219 259.199219 115.132812 259.167969 C 117.644531 259.042969 120.113281 259.222656 122.308594 260.613281 C 123.507812 261.371094 124.734375 261.589844 126.09375 261.203125 C 126.554688 261.070312 127.039062 261.011719 127.613281 260.902344 C 127.613281 261.984375 127.613281 262.953125 127.613281 264.0625 C 129.785156 262.699219 132.023438 261.925781 134.515625 261.675781 C 134.292969 262.386719 134.109375 262.980469 133.90625 263.625 C 135.046875 263.519531 136.101562 263.417969 137.238281 263.3125 C 137.160156 263.914062 137.097656 264.394531 137.023438 264.945312 C 137.867188 265.03125 138.660156 265.121094 139.316406 265.644531 C 139.976562 266.175781 140.1875 266.953125 140.464844 267.640625 C 140.992188 267.640625 141.46875 267.640625 142.085938 267.640625 C 141.84375 266.9375 141.703125 266.316406 141.425781 265.765625 C 140.914062 264.753906 140.023438 264.09375 138.925781 263.5625 Z M 138.925781 263.5625 "/><path style=" stroke:none;fill-rule:nonzero;fill:#000000;fill-opacity:1;" d="M 191.300781 259.914062 C 190.730469 260.835938 191.03125 261.707031 191.496094 262.609375 C 190.382812 263.445312 189.1875 262.75 188 262.917969 C 188.402344 263.496094 188.789062 264.050781 189.164062 264.59375 C 188.335938 266.222656 187.207031 265.351562 186.21875 265.042969 C 185.414062 266.148438 184.636719 267.210938 183.820312 268.328125 C 184.167969 268.648438 184.519531 268.980469 184.953125 269.378906 C 185.617188 268.5625 186.234375 267.800781 186.839844 267.054688 C 189.492188 267.476562 190.355469 266.316406 190.773438 264.632812 C 190.886719 264.609375 191.019531 264.585938 191.148438 264.554688 C 192.796875 264.160156 193.402344 262.957031 192.734375 261.402344 C 192.511719 260.878906 192.542969 260.6875 193.042969 260.375 C 193.457031 260.113281 193.914062 259.929688 194.398438 259.691406 C 194.242188 259.210938 194.097656 258.753906 193.941406 258.273438 C 192.824219 258.535156 191.894531 258.949219 191.300781 259.914062 Z M 191.300781 259.914062 "/><path style=" stroke:none;fill-rule:nonzero;fill:#000000;fill-opacity:1;" d="M 169.816406 265.65625 C 169.523438 265.328125 169.410156 264.972656 169.5625 264.519531 C 169.78125 263.863281 169.65625 263.613281 169 263.441406 C 168.640625 263.34375 168.242188 263.351562 167.863281 263.375 C 167.519531 263.398438 167.179688 263.503906 166.792969 263.582031 C 166.253906 261.800781 164.984375 260.847656 163.277344 260.246094 C 163.277344 261.140625 163.277344 261.925781 163.277344 262.773438 C 162.925781 262.742188 162.617188 262.75 162.332031 262.679688 C 161.730469 262.539062 161.308594 262.722656 161.035156 263.273438 C 160.757812 263.835938 160.289062 264.21875 159.78125 264.5625 C 159.449219 264.789062 159.125 265.023438 158.746094 265.289062 C 159.082031 265.773438 159.359375 266.167969 159.664062 266.601562 C 160.285156 266.160156 160.84375 265.761719 161.402344 265.367188 C 161.875 265.039062 162.308594 264.550781 162.832031 264.429688 C 163.347656 264.308594 163.949219 264.5625 164.570312 264.664062 C 164.675781 264.289062 164.785156 263.894531 164.886719 263.53125 C 165.292969 264.023438 165.582031 264.636719 166.0625 264.90625 C 166.566406 265.179688 167.25 265.121094 167.914062 265.21875 C 168.074219 266.28125 168.726562 267.050781 169.792969 267.601562 C 169.984375 267.058594 170.148438 266.605469 170.3125 266.136719 C 170.128906 265.957031 169.960938 265.820312 169.816406 265.65625 Z M 169.816406 265.65625 "/><path style=" stroke:none;fill-rule:nonzero;fill:#000000;fill-opacity:1;" d="M 142.488281 145.714844 C 142.507812 145.011719 142 144.585938 141.398438 144.292969 C 141.296875 144.246094 141.195312 144.207031 141.09375 144.160156 C 140.941406 144.085938 140.789062 144.007812 140.546875 143.886719 C 141.207031 143.644531 141.566406 143.257812 141.699219 142.675781 C 141.863281 141.96875 141.25 141.769531 140.828125 141.425781 C 141.0625 141.148438 141.265625 140.902344 141.5625 140.546875 C 140.925781 140.386719 140.390625 140.253906 139.839844 140.117188 C 139.90625 139.851562 139.96875 139.640625 140.015625 139.429688 C 140.058594 139.238281 140.089844 139.046875 140.132812 138.816406 C 138.453125 139.230469 137.175781 140.164062 135.722656 141.164062 C 137.207031 140.894531 138.503906 140.824219 139.765625 141.421875 C 138.371094 141.683594 137.09375 142.160156 135.847656 143.164062 C 136.667969 143.03125 137.308594 142.910156 137.957031 142.828125 C 138.605469 142.75 139.253906 142.535156 139.957031 142.859375 C 139.375 143.15625 138.792969 143.453125 138.15625 143.777344 C 140.316406 143.949219 141.0625 144.492188 141.105469 145.96875 C 140.371094 145.96875 139.632812 145.96875 138.710938 145.96875 C 140.625 146.863281 141.410156 147.988281 141.335938 149.605469 C 140.023438 148.8125 138.621094 148.324219 137.136719 148.019531 C 138.578125 148.953125 140.121094 149.761719 140.855469 151.484375 C 140.855469 151.152344 140.855469 150.820312 140.855469 150.457031 C 141.796875 151.011719 142.144531 151.078125 142.824219 150.875 C 142.972656 149.671875 142.640625 148.792969 141.363281 147.039062 C 142.058594 146.863281 142.46875 146.382812 142.488281 145.714844 Z M 142.488281 145.714844 "/><path style=" stroke:none;fill-rule:nonzero;fill:#000000;fill-opacity:1;" d="M 139.9375 137.945312 C 139.632812 138.128906 139.324219 138.3125 139.023438 138.496094 C 138.558594 138.78125 138.558594 138.785156 138.289062 139.183594 C 139.09375 139.101562 139.5625 138.582031 139.9375 137.945312 Z M 139.9375 137.945312 "/><path style=" stroke:none;fill-rule:nonzero;fill:#000000;fill-opacity:1;" d="M 173.429688 214.207031 C 172.597656 214.585938 171.726562 214.84375 170.796875 214.824219 C 169.5 214.789062 168.207031 214.769531 166.910156 214.722656 C 165.757812 214.679688 164.835938 215.078125 164.082031 215.976562 C 163.1875 217.046875 161.980469 216.933594 161.375 215.691406 C 160.835938 214.585938 160.003906 213.941406 158.875 213.570312 C 158.222656 213.359375 157.578125 213.109375 156.949219 212.828125 C 155.644531 212.238281 154.917969 210.746094 155.226562 209.359375 C 155.484375 208.210938 155.738281 207.058594 155.992188 205.910156 C 155.953125 205.898438 155.914062 205.886719 155.878906 205.875 C 155.09375 207.101562 154.277344 208.308594 153.542969 209.5625 C 153.132812 210.269531 152.792969 211.039062 152.542969 211.816406 C 152.125 213.128906 152.410156 213.976562 153.542969 214.765625 C 154.285156 215.28125 155.101562 215.695312 155.898438 216.132812 C 156.597656 216.515625 157.328125 216.84375 158.023438 217.234375 C 158.695312 217.609375 159.140625 218.171875 159.40625 218.914062 C 159.605469 219.480469 159.878906 220.039062 160.222656 220.53125 C 161.675781 222.625 165.058594 222.898438 166.652344 220.800781 C 167.019531 220.316406 167.410156 219.851562 167.777344 219.371094 C 168.304688 218.6875 168.964844 218.207031 169.824219 218.078125 C 170.75 217.941406 171.679688 217.785156 172.609375 217.777344 C 173.636719 217.769531 174.496094 217.425781 175.269531 216.816406 C 176.503906 215.847656 176.863281 214.4375 176.269531 212.886719 C 175.320312 213.328125 174.382812 213.78125 173.429688 214.207031 Z M 173.429688 214.207031 "/><g clip-rule="nonzero" clip-path="url(#e497bf65fe)"><path style=" stroke:none;fill-rule:nonzero;fill:#0f0716;fill-opacity:1;" d="M 328.160156 299.835938 C 324.105469 281.1875 319.925781 262.570312 317.640625 243.613281 C 315.105469 222.539062 312.621094 201.449219 310.988281 180.269531 C 310.242188 170.484375 309.246094 160.734375 308.484375 150.953125 C 307.691406 140.90625 307.039062 130.84375 306.308594 120.78125 C 305.703125 112.351562 305.8125 103.90625 305.003906 95.460938 C 304.195312 87.0625 304.832031 78.523438 304.832031 70.0625 C 304.832031 61.726562 304.753906 53.390625 304.863281 45.039062 C 304.910156 40.855469 304.800781 40.511719 300.621094 40.433594 C 297 40.359375 293.363281 40.542969 289.742188 40.417969 C 286.136719 40.296875 282.578125 40.980469 278.941406 40.636719 C 269.707031 39.765625 260.476562 39.191406 251.183594 39.9375 C 242.867188 40.589844 234.535156 40.527344 226.207031 40.34375 C 223.191406 40.28125 223.191406 40.21875 222.398438 37.152344 C 221.636719 34.152344 220.734375 33.34375 217.71875 33.21875 C 214.765625 33.109375 211.8125 33.1875 208.84375 33.125 C 206.792969 33.078125 201.570312 28.039062 201.511719 26.019531 C 201.496094 25.378906 201.773438 24.695312 202.054688 24.105469 C 202.457031 23.265625 203.015625 22.488281 203.4375 21.648438 C 205.921875 16.875 204.355469 11.398438 199.644531 8.816406 C 194.8125 6.171875 189.867188 6.15625 185.019531 8.816406 C 180.277344 11.414062 178.695312 16.84375 181.179688 21.617188 C 181.554688 22.332031 181.972656 23.015625 182.394531 23.699219 C 183.339844 25.257812 183.261719 26.671875 182.128906 28.148438 C 179.703125 31.273438 177.25 34.136719 172.585938 33.203125 C 170.90625 32.859375 169.105469 33.125 167.363281 33.203125 C 163.835938 33.328125 162.839844 33.949219 162.28125 37.542969 C 161.894531 40.078125 160.585938 40.371094 158.472656 40.386719 C 150.40625 40.464844 142.339844 40.574219 134.289062 40 C 126.488281 39.441406 118.71875 39.519531 110.945312 40.25 C 108.132812 40.511719 105.289062 41.183594 102.539062 40.902344 C 97.175781 40.359375 91.8125 40.496094 86.453125 40.449219 C 85.238281 40.449219 84.027344 40.417969 82.832031 40.527344 C 79.941406 40.792969 79.535156 41.335938 79.769531 44.246094 C 79.863281 45.320312 79.753906 46.40625 79.847656 47.464844 C 80 49.285156 79.441406 50.171875 77.390625 50.09375 C 74.5625 50 71.8125 50.777344 69.058594 51.414062 C 67.242188 51.851562 66.355469 52.878906 66.324219 54.820312 C 66.308594 56.40625 67.257812 58.398438 66.105469 59.488281 C 65.066406 60.480469 63.152344 60.589844 61.617188 61.074219 C 60.855469 61.320312 60.0625 61.507812 59.316406 61.820312 C 56.6875 62.910156 56.050781 63.886719 56.050781 66.734375 C 56.050781 68.773438 56.625 70.714844 57.109375 72.675781 C 59.640625 82.707031 61.738281 92.847656 63.183594 103.097656 C 65.359375 118.523438 67.582031 133.96875 69.402344 149.441406 C 70.925781 162.382812 72.820312 175.292969 74.8125 188.152344 C 76.132812 196.738281 76.242188 205.433594 78.277344 213.96875 C 79.738281 220.144531 79.707031 226.753906 79.785156 233.179688 C 80 249.570312 79.972656 265.976562 79.925781 282.371094 C 79.878906 297.425781 80.390625 312.480469 78.523438 327.472656 C 78.261719 329.605469 78.136719 331.75 78.402344 333.910156 C 78.554688 335.171875 79.039062 335.761719 80.453125 335.761719 C 98.308594 335.652344 116.167969 335.871094 134.042969 336.277344 C 149.039062 336.617188 164.101562 337.269531 179.128906 336.074219 C 186.746094 335.46875 194.421875 335.605469 202.101562 335.917969 C 208.800781 336.183594 215.480469 337.132812 222.210938 336.648438 C 225.148438 336.445312 228.117188 336.199219 231.054688 336.277344 C 240.722656 336.523438 250.390625 336.554688 260.058594 335.996094 C 274.417969 335.15625 288.808594 335.824219 303.1875 335.636719 C 305.953125 335.605469 305.953125 335.667969 306.261719 332.855469 C 306.308594 332.449219 306.417969 332.03125 306.355469 331.65625 C 305.953125 329.386719 307.226562 328.949219 309.121094 328.886719 C 313.148438 328.75 317.160156 328.40625 321.183594 328.328125 C 322.472656 328.296875 323.671875 328.328125 324.433594 327.238281 C 325.269531 326.027344 324.835938 324.984375 324.136719 323.617188 C 322.226562 319.914062 323.203125 318.375 327.167969 317.953125 C 327.429688 317.921875 327.710938 317.9375 327.976562 317.890625 C 330.648438 317.472656 331.253906 316.804688 330.820312 314.144531 C 330.027344 309.371094 329.1875 304.609375 328.160156 299.882812 Z M 72.976562 153.347656 C 70.054688 130.828125 67.660156 108.246094 63.230469 85.941406 C 62.128906 80.40625 60.746094 74.929688 59.53125 69.425781 C 58.695312 65.628906 58.785156 65.519531 62.546875 64.371094 C 63.945312 63.933594 65.375 63.59375 67.273438 63.0625 C 70.816406 99.753906 74.917969 136.144531 75.589844 172.832031 C 74.71875 166.347656 73.816406 159.847656 72.976562 153.347656 Z M 79.832031 159.800781 C 78.929688 157.734375 78.773438 156.023438 78.726562 154.28125 C 78.011719 132.085938 75.183594 110.078125 73.257812 87.980469 C 72.386719 77.933594 71.3125 67.917969 70.054688 57.917969 C 69.652344 54.648438 69.714844 54.648438 72.851562 53.996094 C 79.894531 52.550781 79.800781 52.550781 79.785156 59.703125 C 79.753906 77.324219 79.816406 94.945312 79.816406 112.550781 C 79.816406 128.152344 79.816406 143.734375 79.816406 159.785156 Z M 183.15625 32.300781 C 187.117188 28.707031 187.132812 24.945312 184.273438 20.542969 C 182.097656 17.199219 183.386719 13.621094 186.914062 11.789062 C 190.476562 9.9375 194.128906 9.9375 197.671875 11.789062 C 201.214844 13.636719 202.210938 17.011719 200.390625 20.589844 C 200.140625 21.074219 199.894531 21.539062 199.597656 21.988281 C 197.5 25.226562 197.671875 28.257812 200.390625 31.089844 C 200.839844 31.554688 201.230469 32.066406 202.164062 33.125 L 183.125 33.125 C 183.125 32.785156 183.015625 32.425781 183.125 32.316406 Z M 168.140625 67.855469 C 178.058594 67.808594 187.972656 67.730469 197.886719 67.699219 C 203.917969 67.683594 209.949219 68.242188 215.980469 67.886719 C 218.371094 67.746094 220.8125 67.996094 223.128906 67.109375 C 223.625 66.921875 224.292969 67.03125 224.480469 67.589844 C 224.746094 68.351562 224.230469 69.019531 223.578125 69.128906 C 221.746094 69.472656 219.863281 69.628906 218.015625 69.890625 C 214.550781 70.390625 211.066406 70.390625 207.570312 70.296875 C 196.988281 71.199219 186.402344 70.5 175.835938 70.4375 C 171.390625 70.40625 167.007812 69.859375 162.609375 69.488281 C 161.957031 69.425781 161.300781 69.222656 160.695312 68.972656 C 160.167969 68.757812 159.871094 68.242188 160.042969 67.667969 C 160.230469 67.046875 160.867188 66.9375 161.347656 67.109375 C 163.539062 67.917969 165.824219 67.871094 168.109375 67.871094 Z M 296.660156 332.480469 C 286.585938 332.652344 276.484375 332.136719 266.429688 332.652344 C 250.046875 333.476562 233.652344 332.976562 217.285156 333.414062 C 210.976562 333.585938 204.710938 332.652344 198.433594 332.292969 C 193.925781 332.03125 189.355469 331.921875 184.800781 332.480469 C 179.75 333.101562 174.621094 333.335938 169.523438 333.414062 C 159.855469 333.554688 150.191406 333.148438 140.507812 333.257812 C 127.886719 333.398438 115.28125 332.167969 102.632812 332.355469 C 96.585938 332.449219 90.539062 332.480469 84.492188 332.417969 C 81.726562 332.386719 81.648438 332.246094 81.804688 329.386719 C 81.960938 326.429688 82.191406 323.476562 82.582031 320.550781 C 83.839844 310.910156 83.390625 301.21875 83.40625 291.5625 C 83.40625 231.839844 83.359375 172.117188 83.328125 112.398438 C 83.328125 91.011719 83.328125 69.628906 83.328125 48.242188 C 83.328125 47.976562 83.328125 47.699219 83.328125 47.433594 C 83.375 44.058594 83.375 44.042969 86.917969 43.964844 C 88.660156 43.917969 90.429688 43.777344 92.15625 43.933594 C 97.9375 44.464844 103.671875 43.996094 109.421875 43.390625 C 117.863281 42.488281 126.316406 42.582031 134.789062 43.046875 C 142.976562 43.5 151.167969 43.730469 159.359375 43.390625 C 159.871094 43.375 160.402344 43.453125 161.300781 43.515625 C 160.664062 49.84375 160.058594 55.847656 159.4375 61.851562 C 159.34375 62.769531 159.265625 63.578125 158.550781 64.402344 C 155.367188 68.085938 156.8125 71.976562 161.660156 72.644531 C 166.710938 73.34375 171.808594 74.042969 176.90625 73.796875 C 182.035156 73.546875 187.085938 74.558594 192.199219 74.261719 C 201.851562 73.71875 211.535156 74.152344 221.140625 72.878906 C 222.335938 72.722656 223.578125 72.644531 224.683594 72.210938 C 227.929688 70.949219 228.925781 67.214844 226.546875 64.742188 C 225.601562 63.765625 225.273438 62.847656 225.148438 61.617188 C 224.574219 55.738281 223.96875 49.859375 223.363281 43.996094 C 223.640625 43.4375 224.171875 43.328125 224.699219 43.359375 C 235.1875 43.886719 245.648438 43.140625 256.125 42.785156 C 264.59375 42.488281 273.035156 42.921875 281.441406 44.042969 C 285.59375 44.585938 289.757812 43.824219 293.90625 43.949219 C 296.285156 44.027344 299.300781 42.984375 300.839844 44.648438 C 302.207031 46.128906 301.273438 49.035156 301.273438 51.304688 C 301.289062 95.691406 301.289062 140.082031 301.273438 184.46875 C 301.273438 226.164062 301.226562 267.859375 301.210938 309.554688 C 301.210938 314.9375 302.175781 320.257812 302.519531 325.605469 C 303.046875 333.726562 303.980469 332.355469 296.628906 332.480469 Z M 314.996094 325.078125 C 312.730469 325.265625 310.429688 325.25 308.160156 325.496094 C 306.402344 325.683594 305.828125 324.96875 305.6875 323.304688 C 305.191406 317.410156 304.664062 311.515625 304.664062 305.605469 C 304.664062 270.238281 304.695312 234.859375 304.722656 199.492188 C 304.722656 187.390625 304.769531 175.277344 304.816406 163.175781 C 304.816406 162.414062 304.988281 161.636719 305.097656 160.875 C 305.082031 160.875 305.066406 160.875 305.035156 160.875 C 305.035156 160.875 305.035156 160.765625 305.066406 160.703125 C 304.988281 160.5 304.894531 160.3125 304.847656 160.113281 C 304.800781 159.878906 304.816406 159.628906 304.800781 159.398438 C 305.425781 159.441406 304.925781 159.910156 305.050781 160.160156 C 305.128906 160.296875 305.082031 160.515625 305.050781 160.71875 C 305.050781 160.75 305.082031 160.78125 305.097656 160.8125 C 305.097656 160.84375 305.097656 160.859375 305.097656 160.890625 C 306.109375 160.84375 305.875 161.683594 305.9375 162.242188 C 306.871094 172.414062 307.367188 182.617188 307.691406 192.835938 C 308.160156 207.484375 309.183594 222.105469 310.554688 236.691406 C 311.3125 244.71875 311.53125 252.804688 312.371094 260.816406 C 314.375 280.070312 316.972656 299.246094 320.082031 318.34375 C 321.089844 324.578125 321.183594 324.578125 314.996094 325.09375 Z M 325.363281 314.921875 C 323.855469 314.96875 322.378906 315.386719 322.210938 313.101562 C 322.101562 311.5 321.726562 309.929688 321.511719 308.328125 C 319.179688 291.996094 316.988281 275.652344 315.152344 259.257812 C 314.90625 257.003906 314.671875 254.734375 315.324219 252.324219 C 316.613281 259.820312 317.75 267.347656 319.257812 274.796875 C 321.292969 284.921875 323.625 294.96875 325.785156 305.0625 C 326.3125 307.550781 326.609375 310.085938 327.089844 312.589844 C 327.371094 314.050781 327.105469 314.859375 325.378906 314.90625 Z M 325.363281 314.921875 "/></g></g></svg>