<svg xmlns="http://www.w3.org/2000/svg" xmlns:xlink="http://www.w3.org/1999/xlink" width="500" zoomAndPan="magnify" viewBox="0 0 375 374.999991" height="500" preserveAspectRatio="xMidYMid meet" version="1.2"><defs><clipPath id="92e56cf13e"><path d="M 198 119 L 233.546875 119 L 233.546875 137 L 198 137 Z M 198 119 "/></clipPath><clipPath id="a0d97c4857"><path d="M 61 37.5 L 129 37.5 L 129 132 L 61 132 Z M 61 37.5 "/></clipPath><clipPath id="126c7790a0"><path d="M 52.796875 162 L 97 162 L 97 178 L 52.796875 178 Z M 52.796875 162 "/></clipPath><filter x="0%" y="0%" width="100%" filterUnits="objectBoundingBox" id="eaf258ed95" height="100%"><feColorMatrix values="0 0 0 0 1 0 0 0 0 1 0 0 0 0 1 0 0 0 1 0" type="matrix" in="SourceGraphic"/></filter><clipPath id="15a702c6d3"><path d="M 0.601562 0.160156 L 26.761719 0.160156 L 26.761719 34 L 0.601562 34 Z M 0.601562 0.160156 "/></clipPath><clipPath id="71dc91235b"><rect x="0" width="27" y="0" height="35"/></clipPath><clipPath id="b03bc99c1b"><path d="M 0.320312 0.359375 L 23 0.359375 L 23 38.519531 L 0.320312 38.519531 Z M 0.320312 0.359375 "/></clipPath><clipPath id="c6a4b99127"><rect x="0" width="24" y="0" height="39"/></clipPath><clipPath id="009dcd5105"><path d="M 1 0.601562 L 16 0.601562 L 16 29 L 1 29 Z M 1 0.601562 "/></clipPath><clipPath id="24eb3bacb8"><rect x="0" width="16" y="0" height="30"/></clipPath><clipPath id="46ed2fde26"><path d="M 117 156 L 318.992188 156 L 318.992188 327 L 117 327 Z M 117 156 "/></clipPath></defs><g id="4115b40eba"><path style=" stroke:none;fill-rule:nonzero;fill:#754c24;fill-opacity:1;" d="M 199.714844 56.679688 L 200.589844 60.855469 L 200.960938 60.917969 C 201.710938 59.570312 202.214844 58.136719 202.480469 56.613281 C 202.742188 55.09375 202.75 53.574219 202.5 52.050781 C 202.082031 48.996094 200.347656 46.304688 198.613281 43.855469 C 198.550781 43.75 198.476562 43.652344 198.394531 43.566406 C 198.308594 43.480469 198.210938 43.40625 198.109375 43.34375 C 198.003906 43.28125 197.894531 43.230469 197.777344 43.199219 C 197.660156 43.164062 197.542969 43.144531 197.421875 43.140625 C 197.300781 43.136719 197.179688 43.148438 197.0625 43.171875 C 196.941406 43.199219 196.828125 43.242188 196.722656 43.296875 C 196.613281 43.351562 196.515625 43.417969 196.421875 43.5 C 196.332031 43.582031 196.253906 43.671875 196.183594 43.769531 C 193.367188 48.105469 190.648438 52.507812 188.027344 56.980469 L 188.332031 57.199219 C 191.285156 53.957031 194.191406 50.660156 197.039062 47.304688 C 197.28125 47.890625 197.492188 48.488281 197.675781 49.09375 C 198.296875 51.347656 199.234375 54.394531 199.714844 56.679688 Z M 199.714844 56.679688 "/><g clip-rule="nonzero" clip-path="url(#92e56cf13e)"><path style=" stroke:none;fill-rule:nonzero;fill:#754c24;fill-opacity:1;" d="M 229.101562 119.320312 C 226.808594 119.828125 225.117188 121.1875 223 122.03125 C 215.175781 125.5625 207.03125 128.054688 198.566406 129.507812 L 198.605469 129.753906 C 207.246094 128.851562 215.59375 126.785156 223.652344 123.546875 C 224.988281 123 226.320312 122.410156 227.625 121.804688 C 228.675781 121.308594 229.804688 120.917969 230.761719 121.535156 C 231.546875 122.171875 231.660156 122.773438 230.867188 123.5625 C 227.699219 126.15625 223.898438 128.101562 220.289062 129.957031 C 215.175781 132.402344 209.898438 134.410156 204.453125 135.980469 L 204.496094 136.226562 C 214.632812 135.59375 225.019531 132.097656 232.558594 125.078125 C 235.042969 122.449219 232.496094 118.757812 229.101562 119.320312 Z M 229.101562 119.320312 "/></g><path style=" stroke:none;fill-rule:nonzero;fill:#754c24;fill-opacity:1;" d="M 108.992188 182.4375 C 101.4375 186.316406 93.425781 188.589844 84.960938 189.261719 C 82.601562 189.261719 80.0625 189.78125 78.117188 188.464844 C 76.171875 187.144531 77.097656 184.765625 79.105469 183.828125 C 80.457031 183.191406 82.140625 183.078125 83.863281 182.902344 C 86.027344 182.660156 88.152344 182.214844 90.234375 181.574219 C 92.316406 180.929688 94.320312 180.097656 96.242188 179.074219 C 98.167969 178.054688 99.980469 176.859375 101.679688 175.496094 C 103.375 174.128906 104.933594 172.621094 106.347656 170.960938 L 106.15625 170.796875 C 103.804688 173.277344 101.144531 175.359375 98.175781 177.050781 C 95.203125 178.738281 92.050781 179.957031 88.714844 180.703125 C 87.074219 181.070312 85.414062 181.316406 83.738281 181.445312 C 82.070312 181.570312 80.226562 181.550781 78.421875 182.324219 C 75.214844 183.679688 73.929688 187.660156 76.933594 189.992188 C 79.265625 191.808594 82.414062 191.441406 85.046875 191.503906 C 90.371094 191.464844 95.53125 190.53125 100.53125 188.699219 C 103.824219 187.503906 106.933594 185.941406 109.859375 184.015625 C 112.789062 182.089844 115.449219 179.847656 117.851562 177.296875 L 117.679688 177.105469 C 114.914062 179.09375 112.019531 180.875 108.992188 182.4375 Z M 108.992188 182.4375 "/><path style=" stroke:none;fill-rule:nonzero;fill:#ffbd59;fill-opacity:1;" d="M 139.304688 88.863281 C 145.414062 80.125 150.304688 70.492188 157.503906 62.605469 C 164.707031 54.71875 175.058594 48.707031 185.625 50.175781 C 196.191406 51.644531 204.6875 60.550781 208.429688 70.578125 C 212.175781 80.609375 212.09375 91.648438 211.332031 102.335938 C 210.484375 114.371094 208.855469 126.472656 204.761719 137.8125 C 200.671875 149.148438 193.960938 159.8125 184.339844 167.097656 C 172.074219 176.429688 156.207031 179.5 140.851562 180.988281 C 128.917969 182.136719 116.710938 182.445312 105.105469 179.4375 C 93.5 176.429688 82.457031 169.738281 76.289062 159.457031 C 70.117188 149.175781 69.75 135.085938 77.136719 125.65625 C 85.515625 114.886719 98.929688 114.03125 111.078125 110.851562 C 122.875 107.773438 132.496094 98.605469 139.304688 88.863281 Z M 139.304688 88.863281 "/><path style=" stroke:none;fill-rule:nonzero;fill:#754c24;fill-opacity:1;" d="M 178.738281 58.5625 C 178.335938 55.984375 177.5625 53.519531 176.417969 51.171875 C 175.273438 48.824219 173.808594 46.699219 172.023438 44.792969 C 171.4375 44.15625 170.828125 43.5625 170.214844 42.96875 C 169.644531 42.316406 168.976562 41.792969 168.203125 41.402344 C 167.828125 41.25 167.433594 41.179688 167.027344 41.183594 C 166.621094 41.191406 166.230469 41.277344 165.859375 41.441406 C 165.488281 41.605469 165.160156 41.835938 164.878906 42.128906 C 164.601562 42.425781 164.390625 42.761719 164.246094 43.144531 C 163.425781 46.191406 163.050781 49.292969 163.128906 52.449219 C 163.203125 55.605469 163.722656 58.6875 164.6875 61.691406 L 165.0625 61.609375 C 164.359375 56.691406 164.664062 51.832031 165.980469 47.039062 C 166.199219 46.121094 166.480469 45.21875 166.824219 44.335938 C 166.859375 44.269531 166.90625 44.210938 166.964844 44.164062 C 167.058594 44.113281 166.964844 44.207031 166.964844 44.214844 C 166.964844 44.222656 166.914062 44.214844 167.058594 44.375 C 168.722656 46.496094 170.289062 48.960938 172.023438 51.0625 C 173.925781 53.367188 176.363281 56.542969 178.398438 58.722656 Z M 178.738281 58.5625 "/><path style=" stroke:none;fill-rule:nonzero;fill:#754c24;fill-opacity:1;" d="M 190.320312 83.800781 C 190.359375 83.796875 190.402344 83.785156 190.441406 83.769531 C 189.128906 87.695312 192.851562 93.675781 197.308594 91.605469 L 197.308594 91.445312 C 196.332031 90.933594 195.558594 90.527344 194.824219 90.066406 C 194.058594 89.671875 193.339844 89.207031 192.664062 88.679688 C 192.003906 88.015625 191.503906 87.25 191.160156 86.378906 C 190.816406 85.511719 190.660156 84.609375 190.6875 83.675781 C 190.933594 83.5 191.144531 83.289062 191.320312 83.039062 C 191.953125 82.292969 194.242188 80.308594 193.273438 79.460938 C 192.636719 78.886719 190.269531 79.175781 189.46875 79.308594 C 188.671875 79.441406 187.519531 79.675781 187.570312 80.714844 C 187.609375 81.4375 189.089844 83.492188 189.9375 83.792969 C 188.882812 85.960938 187.300781 87.625 185.195312 88.792969 C 182.738281 89.902344 180.410156 90.324219 177.707031 90.882812 L 177.667969 91.066406 C 182.941406 93.980469 189.035156 89.027344 190.320312 83.800781 Z M 190.320312 83.800781 "/><g clip-rule="nonzero" clip-path="url(#a0d97c4857)"><path style=" stroke:none;fill-rule:nonzero;fill:#754c24;fill-opacity:1;" d="M 121.617188 37.980469 C 119.351562 37.105469 116.398438 37.734375 115.035156 39.882812 C 113.472656 42.371094 114.359375 45.457031 113.714844 48.117188 C 112.960938 51.835938 110.800781 55.128906 108.082031 57.757812 C 102.3125 63.21875 94.644531 65.472656 87.238281 68.34375 C 82.496094 70.179688 77.699219 72.347656 73.703125 75.570312 C 64.898438 82.820312 59.878906 94.578125 61.40625 105.980469 C 62.839844 116.792969 69.839844 126.742188 79.636719 131.464844 L 79.757812 131.242188 C 77.46875 129.921875 75.367188 128.355469 73.449219 126.542969 C 71.53125 124.726562 69.851562 122.714844 68.410156 120.5 C 66.96875 118.289062 65.804688 115.9375 64.914062 113.453125 C 64.027344 110.964844 63.445312 108.40625 63.160156 105.78125 C 62.9375 103.195312 63.027344 100.621094 63.421875 98.054688 C 63.816406 95.488281 64.511719 93.003906 65.503906 90.605469 C 66.496094 88.207031 67.757812 85.957031 69.289062 83.863281 C 70.820312 81.765625 72.578125 79.882812 74.5625 78.207031 C 84.777344 69.566406 100.054688 69.167969 109.785156 59.476562 C 112.757812 56.515625 115.132812 52.742188 115.910156 48.546875 C 116.542969 46.113281 115.695312 43.105469 116.828125 41.035156 C 117.996094 39.183594 120.828125 39.351562 122.46875 40.710938 C 127.472656 44.722656 127.277344 52.660156 123.980469 57.753906 C 122.582031 59.941406 120.835938 61.808594 118.742188 63.351562 C 110.152344 69.820312 98.859375 70.320312 88.96875 74.078125 C 83.839844 75.902344 79.050781 78.890625 75.601562 83.097656 C 64.316406 96.089844 67.011719 116.152344 81.101562 125.882812 L 81.246094 125.679688 C 67.597656 115.929688 65.132812 96.332031 76.339844 83.757812 C 78.09375 81.785156 80.078125 80.078125 82.289062 78.632812 C 84.496094 77.1875 86.859375 76.054688 89.367188 75.234375 C 99.351562 71.632812 110.863281 71.175781 119.691406 64.636719 C 126.660156 59.804688 130.746094 50.378906 126.445312 42.464844 C 125.933594 41.457031 125.261719 40.566406 124.429688 39.796875 C 123.601562 39.023438 122.664062 38.417969 121.617188 37.980469 Z M 121.617188 37.980469 "/></g><path style=" stroke:none;fill-rule:nonzero;fill:#754c24;fill-opacity:1;" d="M 216.582031 98.199219 C 215.4375 98.421875 214.476562 98.96875 213.699219 99.839844 C 212.359375 101.257812 211.230469 102.589844 209.898438 103.957031 C 202.125 112.015625 193.300781 118.6875 183.425781 123.96875 L 183.542969 124.199219 C 193.777344 119.367188 202.953125 113.007812 211.066406 105.117188 C 212.371094 103.851562 213.71875 102.414062 214.972656 101.164062 C 215.480469 100.609375 216.101562 100.257812 216.835938 100.113281 C 217.140625 100.097656 217.425781 100.15625 217.695312 100.292969 C 217.964844 100.429688 218.183594 100.625 218.351562 100.878906 C 219.28125 102.144531 218.914062 103.6875 218.210938 105.035156 C 211.453125 115.929688 202.082031 125.089844 191.492188 132.273438 L 191.613281 132.496094 C 194.640625 131.148438 197.535156 129.5625 200.304688 127.738281 C 203.070312 125.914062 205.667969 123.875 208.101562 121.621094 C 210.53125 119.371094 212.765625 116.9375 214.796875 114.316406 C 216.828125 111.699219 218.628906 108.933594 220.207031 106.015625 C 220.691406 105.035156 220.960938 104 221.011719 102.90625 C 221.136719 100.511719 219.167969 97.832031 216.582031 98.199219 Z M 216.582031 98.199219 "/><g clip-rule="nonzero" clip-path="url(#126c7790a0)"><path style=" stroke:none;fill-rule:nonzero;fill:#754c24;fill-opacity:1;" d="M 86.144531 174.550781 C 77.707031 175.542969 69.40625 174.871094 61.242188 172.53125 C 59.03125 171.722656 56.472656 171.308594 55.105469 169.363281 C 53.734375 167.417969 55.445312 165.5625 57.636719 165.359375 C 59.132812 165.222656 60.734375 165.722656 62.421875 166.160156 C 64.121094 166.585938 65.84375 166.886719 67.589844 167.058594 C 71.070312 167.378906 74.519531 167.179688 77.941406 166.460938 C 81.359375 165.738281 84.597656 164.527344 87.652344 162.828125 L 87.539062 162.605469 C 84.46875 164.105469 81.246094 165.121094 77.871094 165.664062 C 74.5 166.203125 71.121094 166.238281 67.734375 165.773438 C 66.066406 165.546875 64.425781 165.199219 62.808594 164.726562 C 61.203125 164.265625 59.480469 163.601562 57.515625 163.695312 C 52.144531 164.105469 51.121094 169.777344 55.617188 172.46875 C 58.78125 174.078125 62.085938 175.296875 65.535156 176.128906 C 68.984375 176.960938 72.484375 177.378906 76.035156 177.390625 C 79.539062 177.421875 83 177.042969 86.417969 176.253906 C 89.835938 175.46875 93.113281 174.296875 96.253906 172.734375 L 96.160156 172.5 C 92.871094 173.433594 89.535156 174.117188 86.144531 174.550781 Z M 86.144531 174.550781 "/></g><path style=" stroke:none;fill-rule:nonzero;fill:#754c24;fill-opacity:1;" d="M 179.253906 73.144531 C 179.992188 73.472656 180.671875 73.898438 181.292969 74.414062 L 181.46875 74.355469 C 181.546875 73.816406 181.480469 73.292969 181.273438 72.789062 C 181.066406 72.285156 180.746094 71.867188 180.3125 71.535156 C 177.777344 69.535156 173.488281 71.796875 173.527344 74.957031 L 173.714844 74.957031 C 174.347656 73.125 176.554688 71.746094 178.328125 72.644531 Z M 179.253906 73.144531 "/><path style=" stroke:none;fill-rule:nonzero;fill:#754c24;fill-opacity:1;" d="M 201.132812 72.707031 L 202.058594 73.144531 C 202.796875 73.472656 203.476562 73.898438 204.097656 74.414062 L 204.273438 74.355469 C 204.351562 73.816406 204.285156 73.292969 204.078125 72.789062 C 203.871094 72.285156 203.550781 71.867188 203.117188 71.535156 C 200.582031 69.535156 196.292969 71.796875 196.332031 74.957031 L 196.519531 74.957031 C 197.136719 73.191406 199.359375 71.808594 201.132812 72.707031 Z M 201.132812 72.707031 "/><g mask="url(#0d169e8950)" transform="matrix(1,0,0,1,135,86)"><g clip-path="url(#71dc91235b)"><g clip-rule="nonzero" clip-path="url(#15a702c6d3)"><path style=" stroke:none;fill-rule:nonzero;fill:#754c24;fill-opacity:1;" d="M 25.488281 28.214844 C 24.296875 27.003906 22.652344 26.394531 21.125 25.679688 C 20.121094 25.175781 19.15625 24.601562 18.230469 23.960938 C 17.308594 23.320312 16.429688 22.621094 15.601562 21.859375 C 14.777344 21.097656 14.003906 20.285156 13.289062 19.417969 C 12.574219 18.546875 11.925781 17.632812 11.335938 16.675781 C 10.75 15.71875 10.230469 14.722656 9.78125 13.691406 C 9.332031 12.660156 8.953125 11.605469 8.652344 10.523438 C 8.347656 9.441406 8.121094 8.339844 7.972656 7.226562 C 7.820312 6.113281 7.746094 4.992188 7.75 3.871094 C 7.75 2.140625 7.308594 0.601562 5.851562 0.621094 C 5.34375 1.375 4.835938 2.121094 4.324219 2.863281 C 3.292969 4.34375 2.183594 5.800781 1.023438 7.234375 C 0.65625 10.382812 0.855469 13.5 1.621094 16.578125 C 2.257812 19.167969 3.3125 21.574219 4.785156 23.796875 C 5.761719 25.226562 6.878906 26.527344 8.140625 27.710938 C 9.402344 28.890625 10.777344 29.917969 12.261719 30.796875 C 13.75 31.671875 15.316406 32.378906 16.960938 32.910156 C 18.605469 33.445312 20.285156 33.792969 22.003906 33.953125 C 23.507812 34.085938 25.242188 33.953125 26.179688 32.789062 C 27.230469 31.484375 26.671875 29.425781 25.488281 28.214844 Z M 25.488281 28.214844 "/></g></g><mask id="0d169e8950"><g filter="url(#eaf258ed95)"><rect x="0" width="375" y="0" height="374.999991" style="fill:#000000;fill-opacity:0.3;stroke:none;"/></g></mask></g><g mask="url(#1d7428c043)" transform="matrix(1,0,0,1,112,105)"><g clip-path="url(#c6a4b99127)"><g clip-rule="nonzero" clip-path="url(#b03bc99c1b)"><path style=" stroke:none;fill-rule:nonzero;fill:#754c24;fill-opacity:1;" d="M 19.347656 30.09375 C 18.546875 29.410156 17.796875 28.675781 17.097656 27.890625 C 16.398438 27.105469 15.757812 26.273438 15.175781 25.394531 C 14.59375 24.519531 14.074219 23.605469 13.621094 22.65625 C 13.164062 21.707031 12.777344 20.730469 12.460938 19.730469 C 12.140625 18.726562 11.894531 17.707031 11.71875 16.667969 C 11.542969 15.628906 11.441406 14.585938 11.414062 13.53125 C 11.382812 12.480469 11.425781 11.433594 11.546875 10.386719 C 11.664062 9.339844 11.851562 8.308594 12.113281 7.289062 C 12.660156 5.292969 13.425781 2.960938 12.152344 1.328125 C 11.886719 0.996094 11.5625 0.730469 11.183594 0.535156 C 8.46875 2.382812 5.578125 3.878906 2.503906 5.03125 C -0.277344 10.101562 0.0234375 17.625 1.515625 22.390625 C 2.011719 23.941406 2.65625 25.429688 3.449219 26.855469 C 4.242188 28.277344 5.167969 29.609375 6.226562 30.851562 C 7.285156 32.089844 8.453125 33.214844 9.734375 34.21875 C 11.015625 35.226562 12.382812 36.097656 13.835938 36.832031 C 15.496094 37.664062 17.359375 38.308594 19.183594 37.972656 C 21.007812 37.636719 22.695312 36.003906 22.523438 34.171875 C 22.351562 32.34375 20.691406 31.226562 19.347656 30.09375 Z M 19.347656 30.09375 "/></g></g><mask id="1d7428c043"><g filter="url(#eaf258ed95)"><rect x="0" width="375" y="0" height="374.999991" style="fill:#000000;fill-opacity:0.3;stroke:none;"/></g></mask></g><g mask="url(#6c2a05bdef)" transform="matrix(1,0,0,1,92,111)"><g clip-path="url(#24eb3bacb8)"><g clip-rule="nonzero" clip-path="url(#009dcd5105)"><path style=" stroke:none;fill-rule:nonzero;fill:#754c24;fill-opacity:1;" d="M 1.632812 12.273438 C 1.160156 14.746094 1.171875 17.214844 1.671875 19.683594 C 2.167969 22.152344 3.113281 24.433594 4.507812 26.53125 C 5.324219 27.753906 6.59375 29.003906 8.042969 28.742188 C 9.246094 28.535156 10.042969 27.304688 10.210938 26.089844 C 10.277344 24.859375 10.152344 23.648438 9.828125 22.460938 C 9.515625 20.75 9.378906 19.027344 9.417969 17.289062 C 9.457031 15.550781 9.667969 13.835938 10.054688 12.140625 C 10.445312 10.445312 11 8.808594 11.71875 7.226562 C 12.441406 5.648438 13.3125 4.15625 14.339844 2.75 C 14.832031 2.207031 15.144531 1.574219 15.277344 0.851562 C 12.324219 1.484375 9.355469 2.117188 6.460938 2.917969 C 3.960938 5.574219 2.351562 8.695312 1.632812 12.273438 Z M 1.632812 12.273438 "/></g></g><mask id="6c2a05bdef"><g filter="url(#eaf258ed95)"><rect x="0" width="375" y="0" height="374.999991" style="fill:#000000;fill-opacity:0.3;stroke:none;"/></g></mask></g><g clip-rule="nonzero" clip-path="url(#46ed2fde26)"><path style=" stroke:none;fill-rule:evenodd;fill:#ecd4a8;fill-opacity:1;" d="M 290.722656 260.832031 C 290.722656 260.832031 224.457031 322.667969 209.4375 325.90625 C 194.414062 329.144531 192.355469 318.84375 181.167969 302.347656 C 169.972656 285.867188 165.257812 280.566406 146.707031 270.550781 C 128.152344 260.546875 119.027344 255.542969 117.550781 247.886719 C 116.082031 240.230469 199.132812 168.390625 204.71875 168.390625 C 210.316406 168.390625 221.074219 159.554688 228.136719 157.351562 C 235.203125 155.136719 249.484375 157.640625 257 162.496094 C 264.503906 167.355469 266.863281 171.035156 266.863281 171.035156 C 266.863281 171.035156 286.445312 161.769531 300.144531 161.769531 C 313.839844 161.769531 316.785156 170.453125 317.960938 177.226562 C 319.140625 183.992188 313.6875 189.589844 302.5 216.671875 C 291.304688 243.765625 293.960938 254.21875 293.222656 256.722656 C 292.484375 259.222656 290.722656 260.832031 290.722656 260.832031 Z M 290.722656 260.832031 "/></g><path style=" stroke:none;fill-rule:nonzero;fill:#000000;fill-opacity:1;" d="M 277.402344 242.171875 C 278.050781 242.171875 278.582031 241.644531 278.582031 240.992188 C 278.582031 240.515625 278.742188 238.660156 279.179688 235.714844 C 279.195312 235.617188 279.195312 235.515625 279.1875 235.417969 C 278.390625 227.820312 276.042969 215.199219 269.363281 198.246094 C 258.039062 169.539062 244.230469 166.4375 238.820312 166.4375 C 238.3125 166.4375 237.371094 166.4375 230.125 171.117188 C 229.578125 171.46875 229.421875 172.199219 229.773438 172.746094 C 230.128906 173.292969 230.859375 173.449219 231.40625 173.097656 C 237.253906 169.320312 238.613281 168.851562 238.867188 168.796875 C 243.832031 168.816406 256.414062 171.839844 267.167969 199.109375 C 273.710938 215.707031 276.03125 228.046875 276.824219 235.515625 C 276.410156 238.347656 276.222656 240.304688 276.222656 240.992188 C 276.222656 241.644531 276.75 242.171875 277.402344 242.171875 Z M 277.402344 242.171875 "/><path style=" stroke:none;fill-rule:nonzero;fill:#000000;fill-opacity:1;" d="M 276.90625 242.179688 C 276.972656 242.179688 277.046875 242.175781 277.117188 242.164062 C 277.757812 242.046875 278.183594 241.433594 278.066406 240.792969 C 276.816406 233.886719 273.203125 219.667969 263.023438 202.019531 C 248.507812 176.839844 232.828125 170.6875 228.480469 170.515625 C 227.664062 170.484375 225.492188 170.398438 213.152344 180.5 C 212.648438 180.910156 212.574219 181.652344 212.988281 182.15625 C 213.398438 182.660156 214.140625 182.734375 214.648438 182.324219 C 225.964844 173.058594 228.1875 172.878906 228.386719 172.871094 C 231.652344 173 246.753906 178.519531 260.980469 203.199219 C 270.980469 220.535156 274.523438 234.457031 275.746094 241.210938 C 275.847656 241.78125 276.34375 242.179688 276.90625 242.179688 Z M 276.90625 242.179688 "/><path style=" stroke:none;fill-rule:nonzero;fill:#000000;fill-opacity:1;" d="M 278.015625 236.71875 C 278.589844 236.71875 279.09375 236.300781 279.179688 235.714844 C 280.085938 229.613281 282.886719 214.171875 289.332031 202.550781 C 292.316406 197.167969 294.621094 192.527344 296.472656 188.800781 C 299.433594 182.847656 301.570312 178.550781 303.332031 177.820312 C 303.449219 177.773438 303.566406 177.726562 303.671875 177.6875 C 304.066406 177.546875 304.355469 177.210938 304.433594 176.796875 C 304.679688 175.503906 304.609375 174.496094 304.222656 173.722656 C 303.417969 172.105469 300.996094 170.621094 289.359375 173.492188 C 282.824219 175.101562 274.339844 177.878906 266.074219 181.105469 C 264.546875 181.695312 262.785156 182.507812 260.839844 183.511719 C 260.261719 183.8125 260.035156 184.523438 260.335938 185.101562 C 260.632812 185.679688 261.34375 185.90625 261.921875 185.605469 C 263.792969 184.640625 265.476562 183.863281 266.929688 183.300781 C 275.105469 180.109375 283.484375 177.367188 289.921875 175.78125 C 301.09375 173.023438 302.101562 174.757812 302.113281 174.773438 C 302.152344 174.855469 302.253906 175.128906 302.203125 175.746094 C 299.71875 176.972656 297.785156 180.867188 294.363281 187.75 C 292.519531 191.457031 290.226562 196.070312 287.269531 201.40625 C 280.640625 213.367188 277.773438 229.140625 276.847656 235.367188 C 276.75 236.011719 277.195312 236.613281 277.839844 236.707031 C 277.898438 236.714844 277.957031 236.71875 278.015625 236.71875 Z M 278.015625 236.71875 "/><path style=" stroke:none;fill-rule:nonzero;fill:#000000;fill-opacity:1;" d="M 205.546875 314.890625 C 209.1875 314.890625 232.582031 295.925781 246.203125 284.625 C 258.671875 274.273438 282.578125 253.898438 283.796875 250.84375 C 284.585938 248.878906 284.972656 245.636719 285.464844 241.535156 C 286.164062 235.6875 287.035156 228.414062 289.425781 220.722656 C 291.960938 212.578125 296.585938 201.925781 300.019531 194.425781 C 301.980469 190.125 302.886719 188.277344 305.339844 184.417969 C 307.773438 180.605469 307.898438 179.667969 307.945312 179.316406 C 308.152344 177.824219 307.703125 176.488281 306.742188 175.742188 C 306.019531 175.183594 304.6875 174.710938 302.429688 175.640625 C 299.851562 176.710938 297.902344 180.632812 294.363281 187.75 C 292.519531 191.457031 290.226562 196.070312 287.269531 201.40625 C 280.359375 213.859375 277.382812 230.96875 276.511719 237.957031 C 274.535156 234.390625 270.859375 227.75 264.230469 218.238281 C 252.929688 202.007812 218.429688 179.746094 211.730469 179.746094 C 207.503906 179.746094 179.921875 202.527344 171.570312 209.507812 C 154.019531 224.179688 135.121094 240.976562 132.476562 245.433594 C 132.28125 245.757812 131.765625 246.625 132.210938 247.441406 C 133.328125 249.5 135.191406 250.609375 140.71875 253.90625 C 145.214844 256.589844 152.003906 260.640625 162.90625 267.820312 C 178.792969 278.28125 186.3125 289.707031 190.585938 297.390625 C 190.871094 297.898438 191.191406 298.503906 191.550781 299.167969 C 194.710938 305.050781 199.996094 314.890625 205.546875 314.890625 Z M 297.875 193.445312 C 294.414062 201.007812 289.746094 211.757812 287.175781 220.019531 C 284.71875 227.917969 283.796875 235.625 283.121094 241.253906 C 282.652344 245.1875 282.28125 248.289062 281.609375 249.964844 C 280.757812 251.726562 266.453125 264.75 244.835938 282.695312 C 220.566406 302.84375 207.441406 312.285156 205.515625 312.535156 C 201.40625 312.535156 196.152344 302.753906 193.628906 298.050781 C 193.265625 297.375 192.9375 296.765625 192.648438 296.242188 C 188.253906 288.34375 180.523438 276.597656 164.203125 265.851562 C 153.257812 258.644531 146.4375 254.574219 141.925781 251.882812 C 137.203125 249.0625 135.371094 247.972656 134.480469 246.644531 C 135.902344 244.003906 149.015625 231.515625 171.511719 212.632812 C 194.820312 193.070312 209.636719 182.304688 211.75 182.101562 C 217.234375 182.101562 251.011719 203.378906 262.296875 219.585938 C 268.855469 228.996094 272.492188 235.566406 274.449219 239.097656 C 276.15625 242.179688 276.511719 242.816406 277.597656 242.539062 C 277.964844 242.445312 278.582031 242.117188 278.582031 240.992188 C 278.582031 239.136719 281.0625 217.453125 289.332031 202.550781 C 292.316406 197.167969 294.621094 192.527344 296.472656 188.800781 C 299.433594 182.847656 301.570312 178.550781 303.332031 177.820312 C 304.246094 177.441406 304.984375 177.363281 305.296875 177.605469 C 305.566406 177.8125 305.695312 178.386719 305.609375 179 C 305.597656 179.085938 305.4375 179.886719 303.351562 183.152344 C 300.828125 187.121094 299.84375 189.125 297.875 193.445312 Z M 297.875 193.445312 "/><path style=" stroke:none;fill-rule:nonzero;fill:#000000;fill-opacity:1;" d="M 204.65625 301.890625 C 204.917969 301.890625 205.179688 301.804688 205.398438 301.628906 C 205.429688 301.601562 208.519531 299.101562 213.042969 295.617188 C 213.558594 295.21875 213.65625 294.480469 213.257812 293.964844 C 212.863281 293.449219 212.121094 293.351562 211.605469 293.75 C 207.058594 297.253906 203.945312 299.769531 203.914062 299.796875 C 203.410156 300.207031 203.332031 300.949219 203.742188 301.453125 C 203.972656 301.742188 204.3125 301.890625 204.65625 301.890625 Z M 220.121094 289.96875 C 220.363281 289.96875 220.609375 289.894531 220.820312 289.738281 C 229.289062 283.457031 271.246094 248.972656 271.671875 248.625 C 272.171875 248.210938 272.246094 247.46875 271.832031 246.964844 C 271.417969 246.464844 270.675781 246.390625 270.171875 246.804688 C 269.75 247.152344 227.835938 281.597656 219.417969 287.84375 C 218.894531 288.230469 218.785156 288.96875 219.171875 289.492188 C 219.402344 289.804688 219.757812 289.96875 220.121094 289.96875 Z M 220.121094 289.96875 "/><path style=" stroke:none;fill-rule:nonzero;fill:#000000;fill-opacity:1;" d="M 233.769531 261.714844 C 234.421875 261.714844 236.179688 261.160156 244.023438 256.210938 C 249.425781 252.804688 254.925781 249.03125 258.378906 246.363281 C 263.910156 242.089844 263.128906 239.488281 259.859375 234.152344 C 257.859375 230.878906 253.800781 225.273438 245.84375 217.152344 C 231.710938 202.734375 215.003906 193.980469 211.433594 193.980469 C 209.234375 193.980469 201.09375 199.417969 196.433594 202.660156 C 193.527344 204.683594 183.984375 211.4375 183.230469 213.441406 C 182.558594 215.242188 184.898438 217.03125 192.394531 222.414062 C 198.863281 227.058594 207.726562 233.421875 212.71875 239.628906 C 218.339844 246.609375 230.820312 261.1875 233.519531 261.6875 C 233.589844 261.699219 233.664062 261.714844 233.769531 261.714844 Z M 233.691406 259.359375 L 233.6875 259.359375 Z M 211.453125 196.335938 C 214.015625 196.339844 230.1875 204.550781 244.160156 218.800781 C 251.964844 226.765625 255.910156 232.214844 257.847656 235.382812 C 260.734375 240.09375 261.195312 241.207031 256.933594 244.496094 C 249.496094 250.246094 236.1875 258.527344 233.871094 259.308594 C 232.070312 258.265625 223.992188 249.871094 214.558594 238.148438 C 209.359375 231.691406 200.351562 225.222656 193.769531 220.5 C 190.285156 218 186.367188 215.183594 185.582031 214.058594 C 187.917969 210.976562 208.824219 196.574219 211.453125 196.335938 Z M 258.851562 234.765625 L 258.847656 234.765625 Z M 258.851562 234.765625 "/></g></svg>